<svg width="600" height="379" version="1.1" xmlns="http://www.w3.org/2000/svg"><path fill="rgb(0,0,0)" stroke="rgb(0,0,0)" stroke-width="1" opacity="0" d="M 0 0 L 531 0.5 Q 516.3 4.8 508 15.5 L 520 39.5 L 518.5 39 Q 509.5 37.5 508 43.5 L 505 48.5 Q 506.3 57.8 503 62.5 Q 488.4 83.9 469 100.5 L 468 108.5 L 477.5 115 L 503.5 119 Q 509.3 120.3 512 124.5 L 513 132 Q 516 133.3 515 129.5 Q 517.3 128.3 516 123.5 L 514 120 L 501.5 114 L 477.5 110 L 474 106.5 Q 473.1 99.6 477.5 98 L 495 81.5 L 505 68 L 508.5 67 L 512 69.5 L 512 72.5 L 498 90.5 L 499.5 94 L 517 73.5 L 518 68.5 L 516 64.5 L 526.5 44 Q 542.9 35.9 554 22.5 L 556 18 L 546.5 23 L 539 8.5 L 533 0.5 L 600 0 L 600 27.5 L 597.5 28 L 594 30 Q 587.1 45.2 573.5 55 L 569 55 L 569 61.5 L 571.5 70 L 573 68.5 L 574 59.5 L 575.5 58 L 585.5 52 L 587 63.5 L 590 71.5 L 590 83.5 L 584 103.5 L 587 101.5 L 593 90.5 L 595 84.5 L 595 78.5 L 594 77.5 L 594 67.5 L 591 59.5 L 591 55.5 L 597 44.5 L 597 40.5 L 599.5 33 L 600 379 L 408 378.5 L 445.5 371 L 479.5 359 Q 506.3 347.3 525 327.5 L 542 306.5 L 556 281.5 L 566 253.5 L 571 228.5 L 570 228.5 Q 549.4 285.9 507.5 322 Q 475.1 350.6 428.5 365 L 389.5 373 L 379.5 373 L 378.5 374 L 344.5 374 L 343.5 373 Q 335.3 374.3 330.5 372 L 331.5 374 L 351 378.5 L 0 379 L 0.5 325 Q 1.9 332.1 7.5 335 L 16.5 339 L 36.5 340 L 50.5 335 L 56 329.5 L 59 320.5 L 59 313.5 Q 56.6 303.4 49.5 298 Q 40.2 290.3 27.5 286 L 17 277.5 L 14 268.5 L 15 263.5 L 18.5 259 L 22.5 257 L 29.5 256 Q 31 258.5 36.5 257 L 43 262.5 L 44 271 L 59 271 L 59 264.5 Q 57.3 255.3 50.5 251 L 40.5 247 L 26.5 246 L 11.5 249 L 5 253 L 0.5 262 L 0 0 Z M 540 41 L 540 43 L 532 46 Q 533 53 528 55 Q 527 61 530 65 L 528 65 L 527 68 L 529 74 Q 534 76 535 83 L 530 85 L 515 85 L 512 84 L 513 88 L 521 92 L 532 95 L 549 94 L 566 85 Q 568 86 567 83 L 560 84 L 559 82 L 563 71 L 562 69 L 562 59 L 563 58 L 561 49 L 552 42 L 540 41 Z M 578 117 Q 568 124 564 137 L 565 144 Q 575 156 582 172 L 588 191 Q 587 199 581 204 Q 580 206 583 205 L 595 192 L 595 185 L 588 175 L 571 140 L 571 136 L 576 128 Q 576 121 579 119 Q 580 116 578 117 Z M 517 147 L 507 176 Q 501 190 492 202 Q 482 215 467 223 L 455 227 L 444 227 L 445 233 Q 449 238 457 239 L 469 239 L 482 236 L 485 237 L 467 248 L 465 251 Q 481 250 493 244 L 522 225 L 524 222 L 517 224 Q 502 226 495 220 L 495 218 L 507 201 L 511 192 L 517 168 L 517 147 Z M 95 159 L 119 220 Q 120 222 126 221 L 128 218 L 151 161 Q 151 158 145 159 L 142 163 L 124 210 Q 125 212 122 211 L 103 162 L 103 159 L 95 159 Z M 156 159 L 154 161 L 154 164 L 162 164 L 162 159 L 156 159 Z M 170 159 L 170 221 L 171 221 L 178 221 L 178 160 L 178 159 L 170 159 Z M 186 159 L 186 221 L 187 221 L 194 221 L 194 160 L 194 159 L 186 159 Z M 295 159 L 295 173 L 279 173 L 274 175 Q 268 177 267 184 L 267 211 L 268 214 Q 271 219 279 221 L 291 221 L 294 219 L 295 219 L 296 221 L 303 221 L 303 160 L 303 159 L 295 159 Z M 154 170 L 154 221 L 155 221 L 162 221 L 162 171 L 162 170 L 154 170 Z M 215 173 L 208 176 Q 203 179 202 186 L 202 209 L 205 216 Q 208 220 214 221 Q 228 223 235 218 L 238 214 L 238 210 L 239 208 L 230 208 L 230 213 L 225 217 Q 218 218 215 216 L 210 209 L 210 199 L 239 199 Q 241 186 236 179 Q 230 171 215 173 Z M 323 173 L 318 175 L 311 184 L 311 211 L 313 215 Q 316 219 323 221 Q 335 223 342 219 L 347 213 L 347 208 L 339 208 L 338 214 L 334 217 Q 327 218 324 216 L 319 211 L 319 199 L 347 199 L 347 184 L 345 180 Q 340 170 323 173 Z M 571 224 L 572 228 L 573 225 L 571 224 Z M 521 236 L 519 246 L 511 267 Q 495 298 476 327 L 474 333 L 489 323 Q 501 313 509 299 L 518 276 L 521 260 L 521 236 Z M 152 246 L 152 258 L 167 258 L 167 246 L 152 246 Z M 303 246 L 303 258 L 318 258 L 318 246 L 303 246 Z M 106 261 Q 90 264 80 272 Q 65 281 62 301 Q 61 316 68 323 Q 80 337 103 341 Q 119 343 126 337 L 138 321 L 145 302 L 145 292 L 140 279 Q 130 262 106 261 Z M 152 262 L 152 340 L 153 340 L 167 340 L 167 263 L 167 262 L 152 262 Z M 197 262 L 184 267 Q 177 272 175 283 L 175 320 Q 176 328 181 333 Q 187 338 197 340 Q 208 342 215 338 L 216 338 L 214 348 Q 211 352 206 353 L 201 353 L 201 363 L 216 362 L 225 357 L 231 345 L 231 262 L 197 262 Z M 239 262 L 239 340 L 240 340 L 254 340 L 254 284 L 256 278 Q 259 273 266 272 L 275 274 L 278 279 L 280 287 L 280 340 L 281 340 L 295 340 L 295 283 L 291 272 L 284 265 L 274 262 Q 262 261 256 264 L 254 265 L 254 262 L 239 262 Z M 303 262 L 303 340 L 304 340 L 318 340 L 318 263 L 318 262 L 303 262 Z M 348 262 L 336 266 Q 328 271 326 281 L 326 322 L 329 330 L 338 337 L 348 340 L 361 340 L 375 335 Q 381 331 382 323 L 382 316 L 366 316 L 365 325 L 360 329 L 349 329 L 347 328 Q 342 325 341 319 L 341 307 L 342 306 L 382 306 L 382 284 L 380 276 L 377 271 Q 368 260 348 262 Z M 410 262 L 402 264 L 394 268 L 390 276 Q 391 280 389 282 L 390 288 L 393 293 L 405 302 L 421 310 L 427 318 L 426 326 L 422 329 L 411 329 L 409 328 L 405 324 L 405 317 L 389 317 L 390 327 L 394 334 L 402 338 L 410 340 L 428 339 L 439 333 L 443 322 Q 443 315 440 311 L 430 301 L 411 291 Q 403 289 405 278 L 410 273 L 415 272 L 423 273 L 427 278 Q 425 283 429 285 L 442 285 L 443 284 Q 443 275 439 270 L 428 263 L 410 262 Z "></path><path fill="rgb(0,0,0)" stroke="rgb(0,0,0)" stroke-width="1" opacity="0" d="M 216.5 177 Q 225.2 175.3 228 179.5 L 230 183.5 L 230 195 L 210 195 L 210 185.5 L 214.5 178 L 216.5 177 Z "></path><path fill="rgb(0,0,0)" stroke="rgb(0,0,0)" stroke-width="1" opacity="0" d="M 281.5 177 L 295 177 L 295 209.5 L 290.5 216 L 281.5 217 L 276 212.5 L 275 210.5 L 275 183.5 L 279.5 178 L 281.5 177 Z "></path><path fill="rgb(0,0,0)" stroke="rgb(0,0,0)" stroke-width="1" opacity="0" d="M 325.5 177 Q 335.6 175.4 338 181.5 L 339 195 L 319 195 L 319 183.5 L 323.5 178 L 325.5 177 Z "></path><path fill="rgb(0,0,0)" stroke="rgb(0,0,0)" stroke-width="1" opacity="0" d="M 101.5 271 Q 118.7 269.8 124 280.5 Q 131.7 289.8 131 307.5 L 128 319.5 L 121.5 327 Q 115.7 330.7 104.5 329 Q 86.6 323.9 77 310.5 Q 72.8 306.7 74 297.5 Q 77.4 286.9 85.5 281 L 101.5 271 Z M 105 275 L 89 284 Q 81 289 77 299 Q 76 307 80 311 Q 87 321 102 325 Q 113 327 120 323 L 125 316 L 127 306 L 126 292 L 122 283 Q 117 275 105 275 Z "></path><path fill="rgb(0,0,0)" stroke="rgb(0,0,0)" stroke-width="1" opacity="0" d="M 201.5 272 L 215.5 272 L 216 272.5 L 216 317.5 L 211.5 327 Q 207.5 330.5 198.5 329 L 192 323.5 L 190 316.5 L 190 285.5 L 191 280.5 L 194.5 275 L 201.5 272 Z "></path><path fill="rgb(0,0,0)" stroke="rgb(0,0,0)" stroke-width="1" opacity="0" d="M 352.5 272 Q 360.8 271.8 364 276.5 L 366 281.5 L 366 296 L 341 296 L 341 282.5 Q 342.3 276.8 346.5 274 L 352.5 272 Z "></path><path fill="rgb(0,0,0)" stroke="rgb(0,0,0)" stroke-width="1" opacity="0" d="M 0.5 276 Q 4 286 12.5 291 L 32.5 301 L 42 309.5 Q 44.7 312.8 44 319.5 Q 42.8 325.3 38.5 328 L 27.5 330 L 22.5 329 L 16 324.5 L 14 315 L 0 315 L 0.5 276 Z "></path><path fill="rgb(193,39,141)" stroke="rgb(193,39,141)" stroke-width="1" opacity="0.8" d="M 571 224 L 573 224.5 L 571 228.5 L 566 253.5 L 556 281.5 L 542 306.5 L 522.5 330 Q 510.7 342.2 495.5 351 L 479.5 359 L 445.5 371 L 407.5 379 L 351.5 379 L 337.5 376 L 330 372.5 L 332.5 372 L 333.5 373 L 343.5 373 L 344.5 374 L 378.5 374 L 379.5 373 L 389.5 373 L 412.5 369 L 428.5 365 L 455.5 355 Q 498.9 335.4 528 301.5 Q 542 285.5 553 266.5 L 568 235.5 L 571 224 Z "></path><path fill="rgb(193,39,141)" stroke="rgb(193,39,141)" stroke-width="1" opacity="0.8" d="M 104.5 275 Q 117.4 274.6 122 282.5 L 126 291.5 L 127 305.5 L 125 315.5 L 119.5 323 Q 113 326.5 101.5 325 Q 87.4 321.1 80 310.5 Q 75.7 307.3 77 298.5 Q 80.6 289.1 88.5 284 L 104.5 275 Z "></path><path fill="rgb(103,128,148)" stroke="rgb(103,128,148)" stroke-width="1" opacity="0.9568627450980393" d="M 531.5 0 L 536 3.5 L 546.5 23 L 556 18 L 554 22.5 L 543.5 33 L 525 45.5 L 516 66.5 L 518 69.5 L 515 67.5 L 515 63.5 L 518 60.5 L 519 55.5 L 524 46.5 L 521 45.5 Q 539.2 38.2 551 24.5 L 550.5 23 L 546.5 25 L 532.5 1 Q 517.7 5.2 509 15.5 L 522 41.5 L 519.5 42 L 514.5 40 L 509 44.5 Q 504.8 48.3 505.5 57 L 505 48.5 L 512.5 39 Q 518 37.5 519.5 40 L 520 38.5 L 508 15.5 Q 516.6 4.6 531.5 0 Z "></path><path fill="rgb(103,128,148)" stroke="rgb(103,128,148)" stroke-width="1" opacity="0.9568627450980393" d="M 597.5 28 Q 602.1 26.6 600 32.5 L 599 32.5 L 598.5 29 L 594 32.5 Q 587.3 47.3 574.5 56 L 570 57 L 571.5 67 L 572.5 65 L 573 68.5 L 571 69.5 L 569 55 L 573.5 55 L 588 40.5 L 594 30 L 597.5 28 Z "></path><path fill="rgb(103,128,148)" stroke="rgb(103,128,148)" stroke-width="1" opacity="0.9568627450980393" d="M 598.5 34 L 599 36.5 Q 596.3 38.8 597 44.5 L 591.5 55 L 591 52.5 L 596 44.5 L 596 40.5 L 598.5 34 Z "></path><path fill="rgb(103,128,148)" stroke="rgb(103,128,148)" stroke-width="1" opacity="0.9568627450980393" d="M 540 41 L 551.5 42 L 561 48.5 L 560.5 50 L 550.5 43 L 541.5 42 L 538.5 46 L 533 47 Q 533.9 53.3 529 55.5 L 529 59.5 L 530 63.5 L 529 63.5 L 528 54.5 Q 533.3 52.8 532 46 L 540 42.5 L 540 41 Z "></path><path fill="rgb(103,128,148)" stroke="rgb(103,128,148)" stroke-width="1" opacity="0.9568627450980393" d="M 561.5 51 L 563 57.5 L 561 56.5 L 561.5 51 Z "></path><path fill="rgb(103,128,148)" stroke="rgb(103,128,148)" stroke-width="1" opacity="0.9568627450980393" d="M 585.5 51 Q 588.3 50.4 587 56.5 L 586 56.5 L 585.5 52 L 574 59.5 L 573.5 64 L 573 59.5 L 585.5 51 Z "></path><path fill="rgb(103,128,148)" stroke="rgb(103,128,148)" stroke-width="1" opacity="0.9568627450980393" d="M 590.5 56 L 591 58.5 L 590 58.5 L 590.5 56 Z "></path><path fill="rgb(103,128,148)" stroke="rgb(103,128,148)" stroke-width="1" opacity="0.9568627450980393" d="M 504.5 58 L 505 61.5 Q 492.5 81 475.5 96 L 470 100.5 L 468.5 104 L 468 102.5 L 495 73.5 L 503 62.5 L 504.5 58 Z "></path><path fill="rgb(103,128,148)" stroke="rgb(103,128,148)" stroke-width="1" opacity="0.9568627450980393" d="M 561.5 59 L 562 63.5 L 561 63.5 L 561.5 59 Z "></path><path fill="rgb(103,128,148)" stroke="rgb(103,128,148)" stroke-width="1" opacity="0.9568627450980393" d="M 587.5 59 L 590 70.5 L 589 70.5 L 587 63.5 L 587.5 59 Z "></path><path fill="rgb(103,128,148)" stroke="rgb(103,128,148)" stroke-width="1" opacity="0.9568627450980393" d="M 591.5 60 L 594 67.5 L 594 73.5 L 593 73.5 L 593 67.5 L 591.5 60 Z "></path><path fill="rgb(103,128,148)" stroke="rgb(103,128,148)" stroke-width="1" opacity="0.9568627450980393" d="M 528 65 L 530 65.5 L 527.5 70 L 527 67.5 L 528 65 Z "></path><path fill="rgb(103,128,148)" stroke="rgb(103,128,148)" stroke-width="1" opacity="0.9568627450980393" d="M 505.5 67 L 507 67.5 L 505 68 Q 494.1 84.8 478.5 98 L 475 100.5 L 474 106.5 L 477.5 110 L 501.5 114 L 514 120 L 516 124.5 L 515 124.5 L 511.5 120 L 495.5 114 L 478.5 112 L 473 107.5 Q 471.9 98.9 477.5 97 L 492 83.5 L 505.5 67 Z "></path><path fill="rgb(103,128,148)" stroke="rgb(103,128,148)" stroke-width="1" opacity="0.9568627450980393" d="M 509.5 67 L 514 70.5 L 501 89.5 L 506 85.5 L 517.5 71 L 517 72.5 L 499.5 94 L 501 91.5 L 500.5 90 L 498.5 91 L 501 87.5 L 512 72.5 L 512 69.5 L 509.5 67 Z "></path><path fill="rgb(103,128,148)" stroke="rgb(103,128,148)" stroke-width="1" opacity="0.9568627450980393" d="M 562.5 69 L 563 70.5 L 561.5 73 L 561 71.5 L 562.5 69 Z "></path><path fill="rgb(103,128,148)" stroke="rgb(103,128,148)" stroke-width="1" opacity="0.9568627450980393" d="M 528.5 71 L 536 79.5 L 536 81.5 L 535 81.5 L 528.5 71 Z "></path><path fill="rgb(103,128,148)" stroke="rgb(103,128,148)" stroke-width="1" opacity="0.9568627450980393" d="M 590.5 72 L 591 83.5 L 588 95.5 L 590 94.5 L 594 84.5 L 594.5 78 L 595 84.5 Q 591.6 96.1 584.5 104 L 584 101.5 L 589 88.5 L 590.5 72 Z "></path><path fill="rgb(103,128,148)" stroke="rgb(103,128,148)" stroke-width="1" opacity="0.9568627450980393" d="M 560.5 74 L 561 76.5 L 560 76.5 L 560.5 74 Z "></path><path fill="rgb(103,128,148)" stroke="rgb(103,128,148)" stroke-width="1" opacity="0.9568627450980393" d="M 559.5 78 L 560 80.5 L 559 80.5 L 559.5 78 Z "></path><path fill="rgb(103,128,148)" stroke="rgb(103,128,148)" stroke-width="1" opacity="0.9568627450980393" d="M 559.5 82 L 560 84 L 567 83 Q 568.1 85.7 565.5 85 L 550.5 93 L 550.5 92 L 562 86.5 L 559 84.5 L 559.5 82 Z "></path><path fill="rgb(103,128,148)" stroke="rgb(103,128,148)" stroke-width="1" opacity="0.9568627450980393" d="M 534.5 83 L 535 85 L 527.5 87 L 515.5 87 L 512 86 Q 510.9 83.3 513.5 84 L 514.5 85 L 529.5 85 L 534.5 83 Z "></path><path fill="rgb(103,128,148)" stroke="rgb(103,128,148)" stroke-width="1" opacity="0.9568627450980393" d="M 513.5 87 L 514.5 89 L 513.5 87 Z "></path><path fill="rgb(103,128,148)" stroke="rgb(103,128,148)" stroke-width="1" opacity="0.9568627450980393" d="M 518.5 90 L 522 91.5 L 520.5 92 L 518.5 90 Z "></path><path fill="rgb(103,128,148)" stroke="rgb(103,128,148)" stroke-width="1" opacity="0.9568627450980393" d="M 523.5 92 L 530 93.5 L 526.5 94 L 523.5 93 L 523.5 92 Z "></path><path fill="rgb(103,128,148)" stroke="rgb(103,128,148)" stroke-width="1" opacity="0.9568627450980393" d="M 546.5 93 L 549 93.5 L 546.5 94 L 546.5 93 Z "></path><path fill="rgb(103,128,148)" stroke="rgb(103,128,148)" stroke-width="1" opacity="0.9568627450980393" d="M 531.5 94 L 544 94.5 L 531.5 95 L 531.5 94 Z "></path><path fill="rgb(103,128,148)" stroke="rgb(103,128,148)" stroke-width="1" opacity="0.9568627450980393" d="M 468.5 107 L 472 111.5 L 468 108.5 L 468.5 107 Z "></path><path fill="rgb(103,128,148)" stroke="rgb(103,128,148)" stroke-width="1" opacity="0.9568627450980393" d="M 475.5 113 L 480 114.5 L 477.5 115 L 475.5 113 Z "></path><path fill="rgb(103,128,148)" stroke="rgb(103,128,148)" stroke-width="1" opacity="0.9568627450980393" d="M 481.5 115 L 485 115.5 L 481.5 116 L 481.5 115 Z "></path><path fill="rgb(103,128,148)" stroke="rgb(103,128,148)" stroke-width="1" opacity="0.9568627450980393" d="M 486.5 116 L 492 116.5 L 486.5 117 L 486.5 116 Z "></path><path fill="rgb(103,128,148)" stroke="rgb(103,128,148)" stroke-width="1" opacity="0.9568627450980393" d="M 493.5 117 L 498 117.5 L 493.5 118 L 493.5 117 Z "></path><path fill="rgb(103,128,148)" stroke="rgb(103,128,148)" stroke-width="1" opacity="0.9568627450980393" d="M 577.5 117 Q 579.8 116.3 579 118.5 L 577.5 121 L 575.5 120 L 566 133.5 L 565 141.5 L 573 153.5 L 571 152.5 L 564 141.5 L 564 136.5 Q 568.3 124.3 577.5 117 Z "></path><path fill="rgb(103,128,148)" stroke="rgb(103,128,148)" stroke-width="1" opacity="0.9568627450980393" d="M 499.5 118 L 503 118.5 L 499.5 119 L 499.5 118 Z "></path><path fill="rgb(103,128,148)" stroke="rgb(103,128,148)" stroke-width="1" opacity="0.9568627450980393" d="M 507.5 120 L 513 124.5 L 515 132 Q 511.3 133.3 513 127.5 L 508.5 121 L 507.5 120 Z "></path><path fill="rgb(103,128,148)" stroke="rgb(103,128,148)" stroke-width="1" opacity="0.9568627450980393" d="M 576.5 122 L 577 124.5 L 571 135.5 L 571 139.5 L 573 143.5 L 572 143.5 Q 569.2 140.8 570 134.5 Q 575.1 130.1 576.5 122 Z "></path><path fill="rgb(103,128,148)" stroke="rgb(103,128,148)" stroke-width="1" opacity="0.9568627450980393" d="M 516.5 147 L 517 152.5 L 515 152.5 L 515 155.5 L 509.5 170 L 509 168.5 L 516.5 147 Z "></path><path fill="rgb(103,128,148)" stroke="rgb(103,128,148)" stroke-width="1" opacity="0.9568627450980393" d="M 575.5 149 L 588 174.5 L 594 182.5 L 592 181.5 L 588 176.5 L 575 150.5 L 575.5 149 Z "></path><path fill="rgb(103,128,148)" stroke="rgb(103,128,148)" stroke-width="1" opacity="0.9568627450980393" d="M 573.5 155 L 577 160.5 L 575 159.5 L 573.5 155 Z "></path><path fill="rgb(103,128,148)" stroke="rgb(103,128,148)" stroke-width="1" opacity="0.9568627450980393" d="M 516.5 158 L 517 167.5 L 516 167.5 L 516.5 158 Z "></path><path fill="rgb(103,128,148)" stroke="rgb(103,128,148)" stroke-width="1" opacity="0.9568627450980393" d="M 95 159 L 103 159 L 103 161.5 L 104 163.5 L 103 163.5 L 102 160 L 96 160.5 L 118 214.5 L 117 214.5 L 95 159 Z "></path><path fill="rgb(103,128,148)" stroke="rgb(103,128,148)" stroke-width="1" opacity="0.9568627450980393" d="M 144.5 159 Q 151.5 157.5 151 160.5 L 143.5 178 L 143 176.5 L 150 160.5 L 144 160 L 141.5 167 L 141 165.5 L 144.5 159 Z "></path><path fill="rgb(103,128,148)" stroke="rgb(103,128,148)" stroke-width="1" opacity="0.9568627450980393" d="M 155.5 159 L 162 159.5 L 155 160 L 154.5 164 L 154 160.5 L 155.5 159 Z "></path><path fill="rgb(103,128,148)" stroke="rgb(103,128,148)" stroke-width="1" opacity="0.9568627450980393" d="M 170 159 L 178 159.5 L 171 160 L 171 219.5 Q 171.3 220.8 177.5 220 L 177.5 221 L 170.5 221 L 170 220.5 L 170 159 Z "></path><path fill="rgb(103,128,148)" stroke="rgb(103,128,148)" stroke-width="1" opacity="0.9568627450980393" d="M 186 159 L 194 159.5 L 187 160 L 187 219.5 Q 187.3 220.8 193.5 220 L 193.5 221 L 186.5 221 L 186 220.5 L 186 159 Z "></path><path fill="rgb(103,128,148)" stroke="rgb(103,128,148)" stroke-width="1" opacity="0.9568627450980393" d="M 295 159 L 302.5 159 L 303 159.5 L 303 221 L 295.5 221 L 295 219 L 293.5 219 L 290.5 221 L 278.5 221 Q 271.3 219.2 268 213.5 L 268.5 212 L 273.5 218 Q 279.3 221.7 290.5 220 L 295.5 217 L 296 220 L 301.5 220 L 302 219.5 L 302 160 L 296 160 L 296 174 L 278.5 174 Q 272 175.5 269 180.5 L 268.5 182 L 268 180.5 Q 271.3 174.8 278.5 173 L 295 173 L 295 159 Z "></path><path fill="rgb(103,128,148)" stroke="rgb(103,128,148)" stroke-width="1" opacity="0.9568627450980393" d="M 578.5 164 L 580 166.5 L 579 166.5 L 578.5 164 Z "></path><path fill="rgb(103,128,148)" stroke="rgb(103,128,148)" stroke-width="1" opacity="0.9568627450980393" d="M 104.5 165 L 109 176.5 L 108 176.5 L 104.5 165 Z "></path><path fill="rgb(103,128,148)" stroke="rgb(103,128,148)" stroke-width="1" opacity="0.9568627450980393" d="M 140.5 168 L 141 169.5 L 137.5 177 L 137 175.5 L 140.5 168 Z "></path><path fill="rgb(103,128,148)" stroke="rgb(103,128,148)" stroke-width="1" opacity="0.9568627450980393" d="M 515.5 169 L 516 173.5 L 515 173.5 L 515.5 169 Z "></path><path fill="rgb(103,128,148)" stroke="rgb(103,128,148)" stroke-width="1" opacity="0.9568627450980393" d="M 154 170 L 162 170.5 L 155 171 L 155 219.5 Q 155.3 220.8 161.5 220 L 161.5 221 L 154.5 221 L 154 220.5 L 154 170 Z "></path><path fill="rgb(103,128,148)" stroke="rgb(103,128,148)" stroke-width="1" opacity="0.9568627450980393" d="M 508.5 171 L 509 172.5 Q 500.3 196.3 483.5 212 L 467.5 223 L 468.5 221 Q 482.9 213.9 492 201.5 Q 502.5 188.5 508.5 171 Z "></path><path fill="rgb(103,128,148)" stroke="rgb(103,128,148)" stroke-width="1" opacity="0.9568627450980393" d="M 582.5 172 L 587 184.5 L 586 184.5 L 582.5 172 Z "></path><path fill="rgb(103,128,148)" stroke="rgb(103,128,148)" stroke-width="1" opacity="0.9568627450980393" d="M 214.5 173 Q 227.6 170.9 233 176.5 L 231.5 176 Q 225.7 172.3 214.5 174 L 206 178.5 L 203.5 184 L 203 181.5 L 207.5 176 L 214.5 173 Z "></path><path fill="rgb(103,128,148)" stroke="rgb(103,128,148)" stroke-width="1" opacity="0.9568627450980393" d="M 322.5 173 Q 339.6 170.4 345 179.5 L 340.5 176 Q 334.4 172.1 322.5 174 Q 316.4 175.4 313.5 180 L 317.5 175 L 322.5 173 Z "></path><path fill="rgb(103,128,148)" stroke="rgb(103,128,148)" stroke-width="1" opacity="0.9568627450980393" d="M 514.5 175 L 515 178.5 L 514 178.5 L 514.5 175 Z "></path><path fill="rgb(103,128,148)" stroke="rgb(103,128,148)" stroke-width="1" opacity="0.9568627450980393" d="M 217.5 176 L 224 176.5 L 217.5 177 L 217.5 176 Z "></path><path fill="rgb(103,128,148)" stroke="rgb(103,128,148)" stroke-width="1" opacity="0.9568627450980393" d="M 281.5 176 L 296 176 L 296 208.5 L 295 208.5 L 295 177 L 281.5 177 L 276 181.5 L 275 183.5 L 275 210.5 L 279.5 216 L 288.5 217 L 294 212.5 L 294.5 210 L 295 212.5 Q 292.6 219.6 281.5 218 L 276 214.5 L 274 210.5 L 274 183.5 L 277.5 178 L 281.5 176 Z "></path><path fill="rgb(103,128,148)" stroke="rgb(103,128,148)" stroke-width="1" opacity="0.9568627450980393" d="M 325.5 176 Q 336.6 174.4 339 181.5 L 340 196 L 318 196 L 318 184.5 L 319 184.5 L 319 195 L 339 195 Q 341.3 182.5 334.5 178 L 325.5 177 L 320 181.5 L 319.5 183 L 319 181.5 L 321 178 L 325.5 176 Z "></path><path fill="rgb(103,128,148)" stroke="rgb(103,128,148)" stroke-width="1" opacity="0.9568627450980393" d="M 214.5 177 L 216 177.5 L 212 180.5 L 210.5 185 L 210 182.5 L 214.5 177 Z "></path><path fill="rgb(103,128,148)" stroke="rgb(103,128,148)" stroke-width="1" opacity="0.9568627450980393" d="M 234.5 177 L 238 184.5 L 237 184.5 L 234.5 177 Z "></path><path fill="rgb(103,128,148)" stroke="rgb(103,128,148)" stroke-width="1" opacity="0.9568627450980393" d="M 109.5 178 L 113 186.5 L 112 186.5 L 109.5 178 Z "></path><path fill="rgb(103,128,148)" stroke="rgb(103,128,148)" stroke-width="1" opacity="0.9568627450980393" d="M 136.5 178 L 137 179.5 L 134.5 185 L 134 183.5 L 136.5 178 Z "></path><path fill="rgb(103,128,148)" stroke="rgb(103,128,148)" stroke-width="1" opacity="0.9568627450980393" d="M 227.5 178 L 231 183.5 L 231 196 L 210 195.5 L 230 195 Q 231.7 182.9 227.5 178 Z "></path><path fill="rgb(103,128,148)" stroke="rgb(103,128,148)" stroke-width="1" opacity="0.9568627450980393" d="M 142.5 179 L 143 180.5 L 141.5 183 L 141 181.5 L 142.5 179 Z "></path><path fill="rgb(103,128,148)" stroke="rgb(103,128,148)" stroke-width="1" opacity="0.9568627450980393" d="M 513.5 180 L 514 182.5 L 509.5 194 L 509 192.5 L 513.5 180 Z "></path><path fill="rgb(103,128,148)" stroke="rgb(103,128,148)" stroke-width="1" opacity="0.9568627450980393" d="M 312.5 181 L 313 182.5 L 312 183.5 L 312 210.5 L 313 212.5 L 312 212.5 L 311 210.5 L 311 183.5 L 312.5 181 Z "></path><path fill="rgb(103,128,148)" stroke="rgb(103,128,148)" stroke-width="1" opacity="0.9568627450980393" d="M 345.5 181 L 347 183.5 L 347 199 L 319 199 L 319 209.5 L 318 209.5 L 318 198 L 346 198 L 346 183.5 L 345.5 181 Z "></path><path fill="rgb(103,128,148)" stroke="rgb(103,128,148)" stroke-width="1" opacity="0.9568627450980393" d="M 267.5 183 L 268 187.5 L 267 187.5 L 267.5 183 Z "></path><path fill="rgb(103,128,148)" stroke="rgb(103,128,148)" stroke-width="1" opacity="0.9568627450980393" d="M 140.5 184 L 141 185.5 L 137.5 193 L 137 191.5 L 140.5 184 Z "></path><path fill="rgb(103,128,148)" stroke="rgb(103,128,148)" stroke-width="1" opacity="0.9568627450980393" d="M 202.5 185 L 203 208.5 L 202 208.5 L 202.5 185 Z "></path><path fill="rgb(103,128,148)" stroke="rgb(103,128,148)" stroke-width="1" opacity="0.9568627450980393" d="M 133.5 186 L 134 187.5 L 125.5 208 L 125 206.5 L 133.5 186 Z "></path><path fill="rgb(103,128,148)" stroke="rgb(103,128,148)" stroke-width="1" opacity="0.9568627450980393" d="M 587.5 186 L 588 189.5 L 587 189.5 L 587.5 186 Z "></path><path fill="rgb(103,128,148)" stroke="rgb(103,128,148)" stroke-width="1" opacity="0.9568627450980393" d="M 238.5 187 L 239 199 L 210 198.5 L 238 198 L 238.5 187 Z "></path><path fill="rgb(103,128,148)" stroke="rgb(103,128,148)" stroke-width="1" opacity="0.9568627450980393" d="M 113.5 188 L 116 194.5 L 115 194.5 L 113.5 188 Z "></path><path fill="rgb(103,128,148)" stroke="rgb(103,128,148)" stroke-width="1" opacity="0.9568627450980393" d="M 594.5 189 L 595 191.5 L 582.5 205 L 579.5 207 L 581 204.5 L 587.5 193 L 588 194.5 L 585 200.5 L 591 195.5 L 594.5 189 Z "></path><path fill="rgb(103,128,148)" stroke="rgb(103,128,148)" stroke-width="1" opacity="0.9568627450980393" d="M 136.5 194 L 137 195.5 L 135.5 198 L 135 196.5 L 136.5 194 Z "></path><path fill="rgb(103,128,148)" stroke="rgb(103,128,148)" stroke-width="1" opacity="0.9568627450980393" d="M 116.5 196 L 121 207.5 L 120 207.5 L 116.5 196 Z "></path><path fill="rgb(103,128,148)" stroke="rgb(103,128,148)" stroke-width="1" opacity="0.9568627450980393" d="M 507.5 197 L 508 198.5 L 505.5 202 L 506 200.5 L 507.5 197 Z "></path><path fill="rgb(103,128,148)" stroke="rgb(103,128,148)" stroke-width="1" opacity="0.9568627450980393" d="M 134.5 199 L 135 200.5 L 130.5 210 L 130 208.5 L 134.5 199 Z "></path><path fill="rgb(103,128,148)" stroke="rgb(103,128,148)" stroke-width="1" opacity="0.9568627450980393" d="M 504.5 203 L 504 204.5 L 497.5 214 L 499 211.5 L 504.5 203 Z "></path><path fill="rgb(103,128,148)" stroke="rgb(103,128,148)" stroke-width="1" opacity="0.9568627450980393" d="M 267.5 206 L 268 210.5 L 267 210.5 L 267.5 206 Z "></path><path fill="rgb(103,128,148)" stroke="rgb(103,128,148)" stroke-width="1" opacity="0.9568627450980393" d="M 230 208 L 239 208.5 L 231 209 L 231 212.5 L 229 216 Q 225.8 219 217.5 218 L 217.5 217 Q 227.6 218.6 230 212.5 L 230 208 Z "></path><path fill="rgb(103,128,148)" stroke="rgb(103,128,148)" stroke-width="1" opacity="0.9568627450980393" d="M 339 208 L 347 208 L 347 212.5 L 341.5 219 Q 335 223 322.5 221 Q 316 219.5 313 214.5 L 317.5 218 Q 323.6 221.9 335.5 220 Q 342.1 219.1 345 214.5 L 346 209 L 340 209 L 340 211.5 L 335.5 217 L 334 216.5 L 338 213.5 L 339 208 Z "></path><path fill="rgb(103,128,148)" stroke="rgb(103,128,148)" stroke-width="1" opacity="0.9568627450980393" d="M 121.5 209 L 122 211 Q 124.7 212.1 124 209.5 L 125 209.5 L 124 214 Q 121 215.3 122 211.5 L 121.5 209 Z "></path><path fill="rgb(103,128,148)" stroke="rgb(103,128,148)" stroke-width="1" opacity="0.9568627450980393" d="M 210.5 209 L 214.5 216 L 216 216.5 L 214.5 217 Q 209.8 214.6 210.5 209 Z "></path><path fill="rgb(103,128,148)" stroke="rgb(103,128,148)" stroke-width="1" opacity="0.9568627450980393" d="M 203.5 210 L 207.5 217 Q 214 221.9 227.5 220 Q 234 218.5 237 213.5 L 237.5 211 L 238 213.5 L 234.5 218 Q 227.6 223.1 213.5 221 Q 207.8 219.8 205 215.5 Q 202 213.7 203.5 210 Z "></path><path fill="rgb(103,128,148)" stroke="rgb(103,128,148)" stroke-width="1" opacity="0.9568627450980393" d="M 129.5 211 L 130 212.5 L 128.5 215 L 128 213.5 L 129.5 211 Z "></path><path fill="rgb(103,128,148)" stroke="rgb(103,128,148)" stroke-width="1" opacity="0.9568627450980393" d="M 319.5 211 L 323.5 216 L 333 217.5 L 325.5 218 L 321 216 L 319.5 211 Z "></path><path fill="rgb(103,128,148)" stroke="rgb(103,128,148)" stroke-width="1" opacity="0.9568627450980393" d="M 496.5 215 L 495 217.5 L 496.5 221 L 500 222.5 L 498.5 223 L 494 219.5 Q 493.5 215.5 496.5 215 Z "></path><path fill="rgb(103,128,148)" stroke="rgb(103,128,148)" stroke-width="1" opacity="0.9568627450980393" d="M 118.5 216 L 120 220 L 125.5 220 L 126 218.5 L 127.5 216 L 128 217.5 L 125.5 221 Q 120.3 222.3 119 219.5 L 118.5 216 Z "></path><path fill="rgb(103,128,148)" stroke="rgb(103,128,148)" stroke-width="1" opacity="0.9568627450980393" d="M 522.5 222 L 524 222.5 L 492.5 244 Q 481.3 250.3 464.5 251 L 466.5 248 L 477.5 241 L 476.5 243 L 468 248.5 L 473.5 249 Q 486 246.5 495.5 241 L 520 224.5 L 517 223.5 L 522.5 222 Z "></path><path fill="rgb(103,128,148)" stroke="rgb(103,128,148)" stroke-width="1" opacity="0.9568627450980393" d="M 501.5 223 L 504 223.5 L 501.5 224 L 501.5 223 Z "></path><path fill="rgb(103,128,148)" stroke="rgb(103,128,148)" stroke-width="1" opacity="0.9568627450980393" d="M 462.5 224 L 464 224.5 L 455.5 227 L 455.5 226 L 462.5 224 Z "></path><path fill="rgb(103,128,148)" stroke="rgb(103,128,148)" stroke-width="1" opacity="0.9568627450980393" d="M 505.5 224 L 516 224.5 L 505.5 225 L 505.5 224 Z "></path><path fill="rgb(103,128,148)" stroke="rgb(103,128,148)" stroke-width="1" opacity="0.9568627450980393" d="M 444 227 L 454 227.5 L 445 228 L 444.5 230 L 444 227 Z "></path><path fill="rgb(103,128,148)" stroke="rgb(103,128,148)" stroke-width="1" opacity="0.9568627450980393" d="M 445.5 231 L 448.5 235 L 453.5 237 L 473.5 237 L 489 234 Q 490.1 236.7 487.5 236 L 479.5 241 L 480.5 239 L 485 236.5 L 481.5 236 L 468.5 239 L 456.5 239 Q 448.7 237.8 445 232.5 L 445.5 231 Z "></path><path fill="rgb(103,128,148)" stroke="rgb(103,128,148)" stroke-width="1" opacity="0.9568627450980393" d="M 520.5 236 L 521 239.5 L 520 239.5 L 520.5 236 Z "></path><path fill="rgb(103,128,148)" stroke="rgb(103,128,148)" stroke-width="1" opacity="0.9568627450980393" d="M 519.5 241 L 520 244.5 L 519 244.5 L 519.5 241 Z "></path><path fill="rgb(103,128,148)" stroke="rgb(103,128,148)" stroke-width="1" opacity="0.9568627450980393" d="M 26.5 246 L 33 246.5 L 26.5 247 L 26.5 246 Z "></path><path fill="rgb(103,128,148)" stroke="rgb(103,128,148)" stroke-width="1" opacity="0.9568627450980393" d="M 152 246 L 167 246.5 L 153 247 L 153 257 L 166.5 257 L 166.5 258 L 152 258 L 152 246 Z "></path><path fill="rgb(103,128,148)" stroke="rgb(103,128,148)" stroke-width="1" opacity="0.9568627450980393" d="M 303.5 246 L 318 246 L 318 258 L 303 257.5 L 317 257 L 317 247 L 303.5 247 L 303.5 246 Z "></path><path fill="rgb(103,128,148)" stroke="rgb(103,128,148)" stroke-width="1" opacity="0.9568627450980393" d="M 518.5 246 L 519 248.5 L 505 280.5 L 476 329.5 L 477.5 329 Q 491.4 320.9 501 308.5 Q 509.5 297.5 514.5 283 L 515 284.5 Q 506.7 308.7 488.5 323 L 474 333 L 476 326.5 L 505 278.5 Q 513.4 263.9 518.5 246 Z "></path><path fill="rgb(103,128,148)" stroke="rgb(103,128,148)" stroke-width="1" opacity="0.9568627450980393" d="M 18.5 247 L 23 247.5 L 18.5 248 L 18.5 247 Z "></path><path fill="rgb(103,128,148)" stroke="rgb(103,128,148)" stroke-width="1" opacity="0.9568627450980393" d="M 36.5 247 L 41 247.5 L 36.5 248 L 36.5 247 Z "></path><path fill="rgb(103,128,148)" stroke="rgb(103,128,148)" stroke-width="1" opacity="0.9568627450980393" d="M 14.5 248 L 17 248.5 L 10.5 251 L 11.5 249 L 14.5 248 Z "></path><path fill="rgb(103,128,148)" stroke="rgb(103,128,148)" stroke-width="1" opacity="0.9568627450980393" d="M 42.5 248 L 47 249.5 L 45.5 250 L 42.5 249 L 42.5 248 Z "></path><path fill="rgb(103,128,148)" stroke="rgb(103,128,148)" stroke-width="1" opacity="0.9568627450980393" d="M 48.5 250 L 56 256.5 L 58 262.5 L 57 262.5 Q 55.9 255.1 50.5 252 L 48.5 250 Z "></path><path fill="rgb(103,128,148)" stroke="rgb(103,128,148)" stroke-width="1" opacity="0.9568627450980393" d="M 8.5 251 L 3 257.5 L 0.5 266 L 0 262.5 L 5 253 L 8.5 251 Z "></path><path fill="rgb(103,128,148)" stroke="rgb(103,128,148)" stroke-width="1" opacity="0.9568627450980393" d="M 520.5 251 L 521 259.5 L 520 259.5 L 520.5 251 Z "></path><path fill="rgb(103,128,148)" stroke="rgb(103,128,148)" stroke-width="1" opacity="0.9568627450980393" d="M 24.5 255 L 37.5 256 L 43 260.5 L 44 264.5 L 43 264.5 L 43 262.5 L 38.5 258 L 28.5 256 Q 27.3 258.3 22.5 257 L 16 261.5 L 14.5 268 L 14 263.5 L 19.5 257 L 24.5 255 Z "></path><path fill="rgb(103,128,148)" stroke="rgb(103,128,148)" stroke-width="1" opacity="0.9568627450980393" d="M 105.5 261 L 113 261.5 L 105.5 262 L 105.5 261 Z "></path><path fill="rgb(103,128,148)" stroke="rgb(103,128,148)" stroke-width="1" opacity="0.9568627450980393" d="M 519.5 261 L 520 266.5 L 515.5 282 L 515 279.5 Q 518.9 271.9 519.5 261 Z "></path><path fill="rgb(103,128,148)" stroke="rgb(103,128,148)" stroke-width="1" opacity="0.9568627450980393" d="M 101.5 262 L 104 262.5 L 98.5 264 L 98.5 263 L 101.5 262 Z "></path><path fill="rgb(103,128,148)" stroke="rgb(103,128,148)" stroke-width="1" opacity="0.9568627450980393" d="M 115.5 262 Q 131.9 266.1 140 278.5 L 143 285.5 L 142 285.5 Q 138.2 274.8 129.5 269 Q 124.4 264.1 115.5 263 L 115.5 262 Z "></path><path fill="rgb(103,128,148)" stroke="rgb(103,128,148)" stroke-width="1" opacity="0.9568627450980393" d="M 152 262 L 167 262.5 L 153 263 L 153 337.5 L 153.5 338 L 166.5 338 L 167 340 L 152.5 340 L 152 339.5 L 152 262 Z "></path><path fill="rgb(103,128,148)" stroke="rgb(103,128,148)" stroke-width="1" opacity="0.9568627450980393" d="M 196.5 262 L 231 262 L 231 344.5 L 225 357 L 215.5 362 L 201.5 363 L 201.5 362 L 214.5 361 Q 221.9 358.9 226 353.5 L 230 344.5 L 230 263 L 196.5 263 L 196.5 262 Z "></path><path fill="rgb(103,128,148)" stroke="rgb(103,128,148)" stroke-width="1" opacity="0.9568627450980393" d="M 239 262 L 253.5 262 L 254 265.5 L 253 265.5 L 252.5 263 L 240 263 L 240 337.5 L 240.5 338 L 253 338 L 253.5 284 L 254 340 L 239.5 340 L 239 339.5 L 239 262 Z "></path><path fill="rgb(103,128,148)" stroke="rgb(103,128,148)" stroke-width="1" opacity="0.9568627450980393" d="M 261.5 262 L 274 262.5 L 261.5 263 L 261.5 262 Z "></path><path fill="rgb(103,128,148)" stroke="rgb(103,128,148)" stroke-width="1" opacity="0.9568627450980393" d="M 303.5 262 L 317.5 262 L 318 262.5 L 318 340 L 303.5 340 L 303 338 L 316.5 338 L 317 337.5 L 317 263 L 303.5 263 L 303.5 262 Z "></path><path fill="rgb(103,128,148)" stroke="rgb(103,128,148)" stroke-width="1" opacity="0.9568627450980393" d="M 347.5 262 L 360 262.5 L 347.5 263 L 347.5 262 Z "></path><path fill="rgb(103,128,148)" stroke="rgb(103,128,148)" stroke-width="1" opacity="0.9568627450980393" d="M 409.5 262 L 423 262.5 L 409.5 263 L 409.5 262 Z "></path><path fill="rgb(103,128,148)" stroke="rgb(103,128,148)" stroke-width="1" opacity="0.9568627450980393" d="M 192.5 263 L 195 263.5 L 192.5 264 L 192.5 263 Z "></path><path fill="rgb(103,128,148)" stroke="rgb(103,128,148)" stroke-width="1" opacity="0.9568627450980393" d="M 257.5 263 L 260 263.5 L 255.5 265 L 255.5 264 L 257.5 263 Z "></path><path fill="rgb(103,128,148)" stroke="rgb(103,128,148)" stroke-width="1" opacity="0.9568627450980393" d="M 275.5 263 L 281 264.5 L 279.5 265 L 275.5 264 L 275.5 263 Z "></path><path fill="rgb(103,128,148)" stroke="rgb(103,128,148)" stroke-width="1" opacity="0.9568627450980393" d="M 342.5 263 L 346 263.5 Q 335.6 264.6 331 271.5 L 327.5 279 L 327 276.5 L 335.5 266 L 342.5 263 Z "></path><path fill="rgb(103,128,148)" stroke="rgb(103,128,148)" stroke-width="1" opacity="0.9568627450980393" d="M 362.5 263 L 365 263.5 L 362.5 264 L 362.5 263 Z "></path><path fill="rgb(103,128,148)" stroke="rgb(103,128,148)" stroke-width="1" opacity="0.9568627450980393" d="M 404.5 263 L 407 263.5 L 404.5 264 L 404.5 263 Z "></path><path fill="rgb(103,128,148)" stroke="rgb(103,128,148)" stroke-width="1" opacity="0.9568627450980393" d="M 425.5 263 L 428 263.5 L 425.5 264 L 425.5 263 Z "></path><path fill="rgb(103,128,148)" stroke="rgb(103,128,148)" stroke-width="1" opacity="0.9568627450980393" d="M 58.5 264 L 59 271 L 44.5 271 Q 43.5 271 44 266.5 L 45 266.5 L 45.5 270 L 58 270 L 58.5 264 Z "></path><path fill="rgb(103,128,148)" stroke="rgb(103,128,148)" stroke-width="1" opacity="0.9568627450980393" d="M 92.5 265 L 94 265.5 L 88.5 268 L 88.5 267 L 92.5 265 Z "></path><path fill="rgb(103,128,148)" stroke="rgb(103,128,148)" stroke-width="1" opacity="0.9568627450980393" d="M 186.5 265 L 188 265.5 L 181 270.5 L 177.5 277 L 177 275.5 L 183.5 267 L 186.5 265 Z "></path><path fill="rgb(103,128,148)" stroke="rgb(103,128,148)" stroke-width="1" opacity="0.9568627450980393" d="M 282.5 265 L 291 271.5 L 294 277.5 L 294 280.5 L 293 280.5 Q 291.9 272.1 286.5 268 Q 281.8 267.2 282.5 265 Z "></path><path fill="rgb(103,128,148)" stroke="rgb(103,128,148)" stroke-width="1" opacity="0.9568627450980393" d="M 371.5 266 L 377 270.5 Q 380.7 274.3 381 281.5 L 380 281.5 L 378 273.5 L 371.5 266 Z "></path><path fill="rgb(103,128,148)" stroke="rgb(103,128,148)" stroke-width="1" opacity="0.9568627450980393" d="M 397.5 266 L 393 271.5 L 390.5 279 L 390 275.5 L 394 268 L 397.5 266 Z "></path><path fill="rgb(103,128,148)" stroke="rgb(103,128,148)" stroke-width="1" opacity="0.9568627450980393" d="M 434.5 266 L 439 269.5 Q 442 272.5 442 278.5 L 441 278.5 L 440 272.5 L 434.5 266 Z "></path><path fill="rgb(103,128,148)" stroke="rgb(103,128,148)" stroke-width="1" opacity="0.9568627450980393" d="M 86.5 268 L 85.5 270 Q 75.4 273.9 70 282.5 Q 65 289 63.5 299 L 63 295.5 Q 67.6 280.1 79.5 272 L 86.5 268 Z "></path><path fill="rgb(103,128,148)" stroke="rgb(103,128,148)" stroke-width="1" opacity="0.9568627450980393" d="M 103.5 269 Q 118.1 269.4 124 278.5 L 130 289.5 L 131 297.5 L 130 297.5 Q 128.3 281.3 117.5 274 Q 112.3 269.7 101.5 271 Q 87.8 276.8 79 287.5 L 74 297.5 L 74 304.5 Q 78.3 315.3 87.5 321 L 104.5 329 L 116.5 329 Q 123 327.5 126 322.5 L 127.5 320 L 127 321.5 L 121.5 328 Q 115.7 331.7 104.5 330 Q 88.6 325.4 79 314.5 Q 72.3 309.7 73 297.5 L 75 291.5 L 83.5 281 Q 91.5 273 103.5 269 Z "></path><path fill="rgb(103,128,148)" stroke="rgb(103,128,148)" stroke-width="1" opacity="0.9568627450980393" d="M 14.5 270 Q 15.6 278.4 21.5 282 L 35 289.5 L 33.5 290 Q 22.8 285.7 16 277.5 Q 13 274.8 14.5 270 Z "></path><path fill="rgb(103,128,148)" stroke="rgb(103,128,148)" stroke-width="1" opacity="0.9568627450980393" d="M 199.5 271 L 217 271 L 217 315.5 L 216 315.5 L 216 272.5 L 215.5 272 L 201.5 272 L 197.5 273 L 193 276.5 L 190.5 285 L 190 280.5 L 192 275 L 199.5 271 Z "></path><path fill="rgb(103,128,148)" stroke="rgb(103,128,148)" stroke-width="1" opacity="0.9568627450980393" d="M 262.5 271 Q 275.5 269.5 279 277.5 L 280 285.5 L 279 285.5 Q 279.3 277.3 274.5 274 L 265.5 272 Q 258.9 272.9 256 277.5 L 254.5 283 L 254 279.5 L 258.5 273 L 262.5 271 Z "></path><path fill="rgb(103,128,148)" stroke="rgb(103,128,148)" stroke-width="1" opacity="0.9568627450980393" d="M 349.5 271 L 357.5 271 L 364 274 L 367 280.5 L 367 297 L 340 297 L 340 282.5 Q 340.9 275.9 345.5 273 L 349.5 271 Z M 353 272 L 347 274 Q 342 277 341 283 L 341 296 L 366 296 L 366 282 L 364 277 Q 361 272 353 272 Z "></path><path fill="rgb(103,128,148)" stroke="rgb(103,128,148)" stroke-width="1" opacity="0.9568627450980393" d="M 411.5 271 Q 423.3 269.2 427 275.5 L 428 283 L 441.5 283 L 442 280.5 L 443 280.5 Q 443.8 284.3 441.5 285 L 428.5 285 L 427 283.5 Q 428.5 274.5 422.5 273 L 414.5 272 L 409.5 273 L 405 277.5 Q 403.4 288.6 410.5 291 L 416 294.5 L 414.5 294 L 405 286.5 L 404 277.5 L 408.5 272 L 411.5 271 Z "></path><path fill="rgb(103,128,148)" stroke="rgb(103,128,148)" stroke-width="1" opacity="0.9568627450980393" d="M 0.5 272 Q 2.4 282.1 9.5 287 Q 18.3 294.2 30.5 298 L 42 307.5 L 44 313.5 L 43 313.5 Q 42 305.6 35.5 303 L 15.5 293 L 3 281.5 L 0 275.5 L 0.5 272 Z "></path><path fill="rgb(103,128,148)" stroke="rgb(103,128,148)" stroke-width="1" opacity="0.9568627450980393" d="M 176.5 278 L 177 280.5 L 176 280.5 L 176.5 278 Z "></path><path fill="rgb(103,128,148)" stroke="rgb(103,128,148)" stroke-width="1" opacity="0.9568627450980393" d="M 326.5 280 L 327 286.5 L 326 286.5 L 326.5 280 Z "></path><path fill="rgb(103,128,148)" stroke="rgb(103,128,148)" stroke-width="1" opacity="0.9568627450980393" d="M 175.5 282 L 176 319.5 Q 177.5 328.5 183.5 333 L 194.5 338 L 210.5 338 L 217 336 L 216.5 339 L 215.5 337 Q 209.3 341.8 196.5 340 Q 186.8 338.2 181 332.5 Q 176.3 327.7 175 319.5 L 175.5 282 Z "></path><path fill="rgb(103,128,148)" stroke="rgb(103,128,148)" stroke-width="1" opacity="0.9568627450980393" d="M 294.5 282 L 295 340 L 280.5 340 L 280 338 L 293.5 338 L 294 337.5 L 294.5 282 Z "></path><path fill="rgb(103,128,148)" stroke="rgb(103,128,148)" stroke-width="1" opacity="0.9568627450980393" d="M 381.5 283 L 382 306 L 341.5 306 L 341 306.5 L 341 318.5 Q 341.9 325.1 346.5 328 L 348 328.5 L 346.5 329 L 341 322.5 Q 338.7 315.8 340 305.5 L 341.5 304 L 381 304 L 381.5 283 Z "></path><path fill="rgb(103,128,148)" stroke="rgb(103,128,148)" stroke-width="1" opacity="0.9568627450980393" d="M 390.5 284 Q 392.6 292.9 399.5 297 L 418.5 307 L 427 314.5 L 428 323.5 L 423.5 329 L 421.5 330 L 410.5 330 L 405 325.5 L 404 318 L 390.5 318 L 390 320.5 L 389 320.5 L 389.5 317 L 405 317 Q 403.5 325.2 408.5 328 L 410.5 329 L 421.5 329 L 426 325.5 L 427 317.5 L 420.5 310 L 404.5 302 L 393 292.5 Q 388.7 289.7 390.5 284 Z "></path><path fill="rgb(103,128,148)" stroke="rgb(103,128,148)" stroke-width="1" opacity="0.9568627450980393" d="M 143.5 287 L 144 289.5 L 143 289.5 L 143.5 287 Z "></path><path fill="rgb(103,128,148)" stroke="rgb(103,128,148)" stroke-width="1" opacity="0.9568627450980393" d="M 38.5 291 L 54 302.5 L 58 311.5 L 57 311.5 L 55 305.5 L 45.5 296 L 39.5 293 L 38.5 291 Z "></path><path fill="rgb(103,128,148)" stroke="rgb(103,128,148)" stroke-width="1" opacity="0.9568627450980393" d="M 144.5 291 L 145 301.5 L 138 320.5 L 126 337 Q 119.1 343.3 102.5 341 Q 79.9 337.1 68 322.5 Q 61 315.5 62 300.5 L 63 300.5 L 64 313.5 Q 68 322.5 75.5 328 L 92.5 337 L 105.5 340 L 114.5 340 L 123.5 337 L 127 333.5 Q 136.1 323.1 142 309.5 L 144 301.5 L 144.5 291 Z "></path><path fill="rgb(103,128,148)" stroke="rgb(103,128,148)" stroke-width="1" opacity="0.9568627450980393" d="M 423.5 298 L 426 299.5 L 424.5 300 L 423.5 298 Z "></path><path fill="rgb(103,128,148)" stroke="rgb(103,128,148)" stroke-width="1" opacity="0.9568627450980393" d="M 131.5 300 L 132 305.5 L 131 305.5 L 131.5 300 Z "></path><path fill="rgb(103,128,148)" stroke="rgb(103,128,148)" stroke-width="1" opacity="0.9568627450980393" d="M 427.5 300 L 440 310.5 L 442 316.5 L 441 316.5 Q 439.4 307.6 432.5 304 Q 427.9 302.8 427.5 300 Z "></path><path fill="rgb(103,128,148)" stroke="rgb(103,128,148)" stroke-width="1" opacity="0.9568627450980393" d="M 130.5 308 L 131 312.5 L 130 312.5 L 130.5 308 Z "></path><path fill="rgb(103,128,148)" stroke="rgb(103,128,148)" stroke-width="1" opacity="0.9568627450980393" d="M 58.5 313 L 59 320.5 L 58 320.5 L 58.5 313 Z "></path><path fill="rgb(103,128,148)" stroke="rgb(103,128,148)" stroke-width="1" opacity="0.9568627450980393" d="M 129.5 314 L 130 316.5 L 128.5 319 L 128 317.5 L 129.5 314 Z "></path><path fill="rgb(103,128,148)" stroke="rgb(103,128,148)" stroke-width="1" opacity="0.9568627450980393" d="M 0.5 315 L 14 315.5 L 0.5 316 L 0.5 315 Z "></path><path fill="rgb(103,128,148)" stroke="rgb(103,128,148)" stroke-width="1" opacity="0.9568627450980393" d="M 44.5 315 L 45 317.5 L 44 317.5 L 44.5 315 Z "></path><path fill="rgb(103,128,148)" stroke="rgb(103,128,148)" stroke-width="1" opacity="0.9568627450980393" d="M 326.5 315 Q 326.7 328.8 335.5 334 L 345.5 338 L 363.5 338 L 373.5 334 L 378 329.5 Q 381.9 325 381 317 L 367 317 L 367 322.5 L 363.5 328 Q 359.2 331.7 349.5 330 L 349.5 329 Q 361.8 331.3 365 324.5 L 366 316 L 382 316 L 382 322.5 Q 380.5 331 374.5 335 L 360.5 340 L 347.5 340 L 337.5 337 L 329 329.5 L 326 321.5 L 326.5 315 Z "></path><path fill="rgb(103,128,148)" stroke="rgb(103,128,148)" stroke-width="1" opacity="0.9568627450980393" d="M 190.5 317 Q 190.8 325.2 196.5 328 Q 200 330.5 207.5 329 L 213 325.5 L 215.5 318 L 216 321.5 L 210.5 329 L 198.5 330 L 192 325.5 Q 188.9 322.5 190.5 317 Z "></path><path fill="rgb(103,128,148)" stroke="rgb(103,128,148)" stroke-width="1" opacity="0.9568627450980393" d="M 14.5 318 Q 14.3 324.7 18.5 327 L 27 329.5 L 22.5 330 L 15 324.5 L 14.5 318 Z "></path><path fill="rgb(103,128,148)" stroke="rgb(103,128,148)" stroke-width="1" opacity="0.9568627450980393" d="M 442.5 318 L 443 321.5 L 442 321.5 L 442.5 318 Z "></path><path fill="rgb(103,128,148)" stroke="rgb(103,128,148)" stroke-width="1" opacity="0.9568627450980393" d="M 0.5 320 Q 1.5 330 8.5 334 Q 19 340.5 38.5 338 Q 49.8 336.3 55 328.5 L 57.5 322 L 58 324.5 Q 56.2 331.7 50.5 335 L 36.5 340 L 22.5 340 Q 21.3 337.8 16.5 339 L 7.5 335 L 2 329.5 Q -1.1 325.9 0.5 320 Z "></path><path fill="rgb(103,128,148)" stroke="rgb(103,128,148)" stroke-width="1" opacity="0.9568627450980393" d="M 43.5 320 L 44 322.5 L 38.5 329 L 32.5 330 L 32.5 329 Q 39.8 329.3 42 324.5 L 43.5 320 Z "></path><path fill="rgb(103,128,148)" stroke="rgb(103,128,148)" stroke-width="1" opacity="0.9568627450980393" d="M 390.5 323 L 394 332 L 406.5 338 L 425.5 338 Q 433.3 336.3 438 331.5 L 441.5 323 L 442 326.5 L 439 333 L 427.5 339 L 409.5 340 L 401.5 338 L 394 334 L 390 326.5 L 390.5 323 Z "></path><path fill="rgb(103,128,148)" stroke="rgb(103,128,148)" stroke-width="1" opacity="0.9568627450980393" d="M 215.5 341 L 216 345.5 L 210.5 352 L 206.5 353 L 206.5 352 Q 212.1 351.6 214 347.5 L 215.5 341 Z "></path><path fill="rgb(103,128,148)" stroke="rgb(103,128,148)" stroke-width="1" opacity="0.9568627450980393" d="M 201.5 353 L 205 353.5 L 201.5 354 L 201.5 353 Z "></path><path fill="rgb(103,128,148)" stroke="rgb(103,128,148)" stroke-width="1" opacity="1" d="M 531.5 1 L 534 2.5 L 546.5 25 L 553.5 20 L 551 23.5 L 544.5 31 L 529.5 42 L 521 45.5 L 524 46.5 L 519 55.5 L 518 60.5 L 515 63.5 L 515 67.5 Q 521 70.5 515 73.5 L 499.5 93 L 499 91.5 L 514 70.5 Q 512.7 65.8 505.5 67 Q 493.4 83.4 478.5 97 L 474 100.5 L 473 107.5 L 478.5 112 L 495.5 114 L 505.5 117 L 515 123.5 L 516 126.5 L 514.5 130 Q 513.8 122.7 508.5 120 L 497.5 117 L 480.5 115 L 472.5 112 L 469 108.5 L 468 104.5 L 474.5 96 L 490 81.5 L 504 63.5 L 506 56.5 L 506 49.5 L 512.5 41 L 516.5 40 L 521.5 42 L 521 40.5 L 519 33.5 L 509 15.5 Q 517.7 5.7 531.5 1 Z "></path><path fill="rgb(103,128,148)" stroke="rgb(103,128,148)" stroke-width="1" opacity="1" d="M 598.5 29 L 599 33.5 L 596 40.5 L 596 44.5 L 591 52.5 L 590 58.5 L 593 67.5 L 594 84.5 L 587.5 98 L 587 96.5 L 591 83.5 L 591 72.5 L 587 58.5 L 587 51 L 573 59.5 Q 573.9 64.9 571.5 67 L 570 57 L 574.5 56 L 589 41.5 L 595.5 31 L 598.5 29 Z "></path><path fill="rgb(103,128,148)" stroke="rgb(103,128,148)" stroke-width="1" opacity="1" d="M 541.5 42 L 550.5 43 L 561 50.5 L 562 58.5 L 561 63.5 Q 563.5 65 562 70.5 L 559 78.5 L 559 84.5 L 561.5 86 L 563.5 85 L 563.5 86 L 545.5 94 L 530.5 94 L 517.5 90 L 513 86.5 L 514.5 86 L 515.5 87 L 527.5 87 L 535 85 L 536 79.5 Q 529.5 76 528 67.5 Q 531.3 66.3 530 60.5 L 529 55.5 Q 533.9 53.3 533 47 L 540 44.5 L 541.5 42 Z "></path><path fill="rgb(103,128,148)" stroke="rgb(103,128,148)" stroke-width="1" opacity="1" d="M 575.5 120 Q 577.8 119.3 577 121.5 Q 575.2 129.7 570 134.5 L 570 139.5 L 588 176.5 L 594 183.5 L 595 188.5 Q 590.7 198.2 582.5 204 L 585 200.5 L 588 194.5 L 588 186.5 Q 580.2 160.3 565 141.5 L 565 136.5 Q 568.3 126.3 575.5 120 Z "></path><path fill="rgb(103,128,148)" stroke="rgb(103,128,148)" stroke-width="1" opacity="1" d="M 515.5 152 Q 518 153 517 157.5 L 516 158.5 L 516 168.5 L 514 179.5 L 509 194.5 Q 503.2 207.7 494 217.5 L 494 219.5 Q 500.6 226.4 515.5 225 L 519.5 224 L 519.5 225 L 489.5 244 L 478.5 248 L 468.5 249 L 469.5 247 L 489 236 Q 490.3 232.7 485.5 234 L 473.5 237 L 453.5 237 L 446 232.5 L 445 228 L 453.5 228 L 461.5 226 Q 477.9 218.9 489 206.5 Q 500.7 193.2 508 175.5 L 515.5 152 Z "></path><path fill="rgb(103,128,148)" stroke="rgb(103,128,148)" stroke-width="1" opacity="1" d="M 96.5 160 Q 102.6 158.8 102 161.5 L 113 187.5 L 122 214 Q 125 215.3 124 211.5 L 144 160 L 150 160.5 L 126 220 L 120.5 220 L 120 218.5 L 96.5 160 Z "></path><path fill="rgb(103,128,148)" stroke="rgb(103,128,148)" stroke-width="1" opacity="1" d="M 155 160 L 162 160 L 162 164 L 155 164 L 155 160 Z "></path><path fill="rgb(103,128,148)" stroke="rgb(103,128,148)" stroke-width="1" opacity="1" d="M 171 160 L 177.5 160 L 178 160.5 L 178 220 L 171.5 220 L 171 219.5 L 171 160 Z "></path><path fill="rgb(103,128,148)" stroke="rgb(103,128,148)" stroke-width="1" opacity="1" d="M 187 160 L 193.5 160 L 194 160.5 L 194 220 L 187.5 220 L 187 219.5 L 187 160 Z "></path><path fill="rgb(103,128,148)" stroke="rgb(103,128,148)" stroke-width="1" opacity="1" d="M 296 160 L 301.5 160 L 302 160.5 L 302 220 L 296 220 L 296 217.5 L 294.5 218 Q 289.5 222 278.5 220 Q 272 218.5 269 213.5 L 267 205.5 L 267 188.5 L 269 180.5 L 273.5 176 L 278.5 174 L 296 174 L 296 160 Z M 282 176 L 278 178 L 274 184 L 274 211 L 276 215 L 282 218 L 291 217 L 295 213 L 296 209 L 296 176 L 282 176 Z "></path><path fill="rgb(103,128,148)" stroke="rgb(103,128,148)" stroke-width="1" opacity="1" d="M 155 171 L 161.5 171 L 162 171.5 L 162 220 L 155.5 220 L 155 219.5 L 155 171 Z "></path><path fill="rgb(103,128,148)" stroke="rgb(103,128,148)" stroke-width="1" opacity="1" d="M 214.5 174 Q 227.9 172.4 234 177 Q 240 183.5 238 198 L 210 198 L 210 211.5 L 214.5 217 L 224.5 218 L 229 216 L 231 212.5 L 231 209 L 237.5 209 L 238 210.5 L 232.5 218 Q 226.4 221.9 214.5 220 L 206 215.5 L 203 209.5 L 203 184.5 L 207.5 177 L 214.5 174 Z M 218 176 L 215 177 L 210 183 L 210 196 L 231 196 L 231 184 L 229 180 Q 226 175 218 176 Z "></path><path fill="rgb(103,128,148)" stroke="rgb(103,128,148)" stroke-width="1" opacity="1" d="M 322.5 174 Q 339.6 171.4 345 180.5 L 346 183.5 L 346 198 L 318 198 L 318 209.5 L 321 216 Q 324.3 219 332.5 218 L 339 213.5 L 340 209 L 346 209 L 346 212.5 L 341.5 218 Q 334.6 221.6 322.5 220 Q 316 218.5 313 213.5 L 312 210.5 L 312 183.5 L 317.5 176 L 322.5 174 Z M 326 176 L 321 178 L 318 185 L 318 196 L 340 196 L 339 182 Q 337 174 326 176 Z "></path><path fill="rgb(103,128,148)" stroke="rgb(103,128,148)" stroke-width="1" opacity="1" d="M 520.5 240 L 521 250.5 L 520 251.5 L 520 260.5 L 518 271.5 L 513 287.5 Q 504.1 309.6 486.5 323 L 475.5 331 L 476 329.5 L 500 289.5 L 512 266.5 L 519 248.5 L 520.5 240 Z "></path><path fill="rgb(103,128,148)" stroke="rgb(103,128,148)" stroke-width="1" opacity="1" d="M 23.5 247 L 41.5 248 Q 50.6 249.9 55 256.5 Q 59.1 261.3 58 270 L 45.5 270 L 45 266.5 Q 44.1 259.9 39.5 257 Q 34.1 253.9 24.5 255 Q 18 256.5 15 261.5 Q 12.3 265.3 14 273.5 L 21.5 283 L 45.5 296 L 55 305.5 Q 59.4 310.6 58 321.5 Q 55.9 329.8 49.5 334 Q 39 340.5 19.5 338 Q 8.2 336.3 3 328.5 L 1 324.5 L 0 316 L 14 316 L 14 322.5 L 18.5 328 L 22.5 330 L 35.5 330 L 43 324.5 L 45 315.5 Q 43.3 306.3 36.5 302 L 18.5 293 L 5 282.5 Q -0.3 277.3 0 266.5 Q 1.6 255.6 9.5 251 L 23.5 247 Z "></path><path fill="rgb(103,128,148)" stroke="rgb(103,128,148)" stroke-width="1" opacity="1" d="M 153 247 L 167 247 L 167 257 L 153 257 L 153 247 Z "></path><path fill="rgb(103,128,148)" stroke="rgb(103,128,148)" stroke-width="1" opacity="1" d="M 303 247 L 317 247 L 317 257 L 303 257 L 303 247 Z "></path><path fill="rgb(103,128,148)" stroke="rgb(103,128,148)" stroke-width="1" opacity="1" d="M 104.5 262 Q 114.8 260.8 120.5 264 Q 131.5 268.5 138 277.5 Q 145.4 285.1 144 301.5 Q 138.1 323.6 123.5 337 L 114.5 340 L 105.5 340 L 92.5 337 L 81.5 332 L 68 320.5 L 63 309.5 L 63 299.5 Q 66.8 281.8 79.5 273 L 87.5 268 L 104.5 262 Z M 104 269 Q 92 273 84 281 L 75 292 L 73 298 Q 72 310 79 315 Q 89 325 105 330 Q 116 332 122 328 Q 127 324 130 317 L 132 306 L 130 290 L 124 279 Q 118 269 104 269 Z "></path><path fill="rgb(103,128,148)" stroke="rgb(103,128,148)" stroke-width="1" opacity="1" d="M 153 263 L 166.5 263 L 167 263.5 L 167 338 L 153.5 338 L 153 337.5 L 153 263 Z "></path><path fill="rgb(103,128,148)" stroke="rgb(103,128,148)" stroke-width="1" opacity="1" d="M 195.5 263 L 230 263 L 230 344.5 Q 228.3 352.8 222.5 357 L 210.5 362 L 201 362 L 201 354 L 204.5 354 Q 211.9 352.9 215 347.5 L 217 336 Q 209.2 339.8 194.5 338 Q 185.1 335.9 180 329.5 L 176 319.5 L 176 281.5 Q 177.7 273.7 182.5 269 Q 187.3 264.3 195.5 263 Z M 200 271 L 192 275 L 190 281 L 190 322 L 192 326 L 199 330 L 211 329 L 216 322 Q 215 317 217 316 L 217 271 L 200 271 Z "></path><path fill="rgb(103,128,148)" stroke="rgb(103,128,148)" stroke-width="1" opacity="1" d="M 240 263 L 252.5 263 L 253 265.5 L 254.5 265 Q 261.8 261.3 274.5 263 Q 284 264.6 289 270.5 L 294 281.5 L 294 338 L 280.5 338 L 280 337.5 L 280 280.5 Q 278.6 274.4 273.5 272 L 262.5 271 L 256 275.5 L 253 284.5 L 253 338 L 240.5 338 L 240 337.5 L 240 263 Z "></path><path fill="rgb(103,128,148)" stroke="rgb(103,128,148)" stroke-width="1" opacity="1" d="M 303 263 L 316.5 263 L 317 263.5 L 317 338 L 303.5 338 L 303 337.5 L 303 263 Z "></path><path fill="rgb(103,128,148)" stroke="rgb(103,128,148)" stroke-width="1" opacity="1" d="M 346.5 263 Q 370.3 260.2 378 273.5 L 381 282.5 L 381 304 L 341.5 304 L 340 305.5 Q 338.7 315.8 341 322.5 L 346.5 329 Q 351.3 331.3 359.5 330 L 365 326.5 Q 368 323.3 367 317 L 381 317 L 381 322.5 Q 379.1 330.1 373.5 334 L 363.5 338 L 345.5 338 Q 335.1 335.9 330 328.5 L 327 321.5 Q 328.5 316 326 314.5 L 326 287.5 L 328 276.5 L 335.5 267 L 346.5 263 Z M 350 271 L 346 273 Q 341 276 340 283 L 340 297 L 367 297 L 367 281 L 364 274 L 358 271 L 350 271 Z "></path><path fill="rgb(103,128,148)" stroke="rgb(103,128,148)" stroke-width="1" opacity="1" d="M 407.5 263 Q 431.7 259.8 440 272.5 L 442 283 L 428 283 L 428 277.5 L 423.5 272 L 411.5 271 L 405 275.5 L 404 284.5 L 410.5 292 L 426.5 300 L 439 310.5 L 442 317.5 L 442 322.5 Q 440.8 329.3 436.5 333 L 425.5 338 L 406.5 338 L 394 332 Q 389.8 327.3 390 318 L 404 318 L 404 323.5 L 408.5 329 L 410.5 330 L 421.5 330 L 427 325.5 L 428 316.5 L 421.5 309 L 405.5 301 L 393 290.5 L 390 283.5 L 390 279.5 Q 391.8 270.3 398.5 266 L 407.5 263 Z "></path></svg>