<svg width="123" height="48" version="1.1" xmlns="http://www.w3.org/2000/svg"><path fill="rgb(0,0,0)" stroke="rgb(0,0,0)" stroke-width="1" opacity="0" d="M 0 0 L 123 0 L 123 48 L 0 48 L 0 0 Z M 3 10 L 3 23 L 12 23 L 14 21 L 13 12 L 12 10 L 3 10 Z M 15 10 L 15 23 L 25 23 L 25 21 L 18 21 L 18 17 L 24 17 L 24 15 L 18 15 L 18 12 L 25 12 L 25 10 L 15 10 Z M 32 10 L 26 22 Q 25 25 29 23 L 31 20 L 35 20 Q 34 25 38 23 L 38 20 L 34 12 Q 35 9 32 10 Z M 39 10 L 39 20 Q 41 25 49 23 L 52 18 Q 53 11 51 10 L 48 11 L 48 20 L 46 21 L 42 19 L 42 10 L 39 10 Z M 54 10 L 54 23 L 57 22 Q 56 18 59 19 L 60 22 L 64 23 Q 65 20 62 19 Q 65 18 64 13 L 62 10 L 54 10 Z M 69 10 L 65 23 Q 70 25 68 20 Q 73 19 74 22 Q 73 25 77 23 L 73 12 L 69 10 Z M 78 10 L 78 23 L 81 23 L 81 11 L 78 10 Z M 84 10 L 84 23 L 87 23 L 88 16 L 89 19 L 94 23 L 96 23 L 96 11 L 94 10 Q 91 11 92 16 L 89 13 Q 88 9 84 10 Z M 102 10 L 97 17 L 102 23 Q 109 25 110 21 L 110 16 L 104 16 Q 103 19 107 18 L 107 20 L 105 21 L 101 19 Q 100 13 104 12 L 108 14 Q 111 15 110 13 Q 109 9 102 10 Z M 111 16 L 112 18 L 120 18 L 120 16 L 111 16 Z M 6 28 L 2 32 Q 0 40 6 41 Q 11 43 13 40 Q 16 41 14 37 Q 11 36 10 39 L 7 38 Q 4 37 5 33 L 9 30 L 14 32 Q 13 39 18 41 Q 26 43 27 38 L 27 29 L 24 28 L 24 37 L 22 39 L 18 38 L 18 30 L 17 28 L 15 29 L 6 28 Z M 30 28 L 28 30 L 28 40 L 30 41 L 38 41 L 38 39 L 32 39 L 32 29 L 30 28 Z M 36 28 L 36 30 L 40 31 L 40 41 L 43 41 L 43 30 L 47 30 L 47 38 Q 48 43 57 41 L 60 36 Q 61 29 59 28 L 56 29 L 56 38 L 54 39 L 50 37 L 50 28 L 36 28 Z M 61 28 L 61 41 Q 66 43 64 37 L 71 41 Q 72 38 69 37 L 71 34 L 72 34 L 72 41 L 82 41 L 82 39 L 75 39 L 75 35 L 81 35 L 81 33 L 75 33 L 75 30 L 82 30 L 82 28 L 72 28 L 72 32 L 71 31 L 69 28 L 61 28 Z M 83 28 L 83 41 L 93 41 L 93 39 L 86 39 L 86 29 L 83 28 Z M 99 28 L 99 41 L 108 41 L 110 39 L 112 41 L 121 41 L 121 39 L 114 39 Q 112 33 119 35 L 119 33 L 114 33 L 114 30 L 121 30 L 121 28 L 112 28 Q 109 30 110 35 L 109 30 L 108 28 L 99 28 Z M 95 34 Q 94 37 97 36 Q 98 33 95 34 Z "></path><path fill="rgb(0,0,0)" stroke="rgb(0,0,0)" stroke-width="1" opacity="0" d="M 6 12 Q 11.6 10.1 10 15 Q 4.4 16.9 6 12 Z "></path><path fill="rgb(0,0,0)" stroke="rgb(0,0,0)" stroke-width="1" opacity="0" d="M 57 12 L 61 13.5 L 59.5 17 L 57 17 L 57 12 Z "></path><path fill="rgb(0,0,0)" stroke="rgb(0,0,0)" stroke-width="1" opacity="0" d="M 32.5 15 L 33 18 Q 30.3 19.1 31 16.5 L 32.5 15 Z "></path><path fill="rgb(0,0,0)" stroke="rgb(0,0,0)" stroke-width="1" opacity="0" d="M 70.5 15 L 72 18 Q 68.5 19.1 70.5 15 Z "></path><path fill="rgb(0,0,0)" stroke="rgb(0,0,0)" stroke-width="1" opacity="0" d="M 6 17 Q 9.8 16 11 18.5 L 9.5 21 Q 3.8 22.6 6 17 Z "></path><path fill="rgb(0,0,0)" stroke="rgb(0,0,0)" stroke-width="1" opacity="0" d="M 64 30 L 68 31.5 L 66.5 35 L 64 35 L 64 30 Z "></path><path fill="rgb(0,0,0)" stroke="rgb(0,0,0)" stroke-width="1" opacity="0" d="M 102 30 Q 107.6 28.1 106 33 Q 100.4 34.9 102 30 Z "></path><path fill="rgb(0,0,0)" stroke="rgb(0,0,0)" stroke-width="1" opacity="0" d="M 102 35 Q 105.8 34 107 36.5 L 105.5 39 Q 99.8 40.6 102 35 Z "></path><path fill="rgb(255,255,255)" stroke="rgb(255,255,255)" stroke-width="1" opacity="0.7333333333333333" d="M 100.5 11 L 99.5 13 L 100.5 11 Z "></path><path fill="rgb(255,255,255)" stroke="rgb(255,255,255)" stroke-width="1" opacity="0.7333333333333333" d="M 40.5 20 L 41.5 22 L 40.5 20 Z "></path><path fill="rgb(255,255,255)" stroke="rgb(255,255,255)" stroke-width="1" opacity="0.7333333333333333" d="M 99.5 20 L 100.5 22 L 99.5 20 Z "></path><path fill="rgb(255,255,255)" stroke="rgb(255,255,255)" stroke-width="1" opacity="0.7333333333333333" d="M 48.5 38 L 49.5 40 L 48.5 38 Z "></path><path fill="rgb(255,255,255)" stroke="rgb(255,255,255)" stroke-width="1" opacity="0.4745098039215686" d="M 61.5 10 L 62.5 12 L 61.5 10 Z "></path><path fill="rgb(255,255,255)" stroke="rgb(255,255,255)" stroke-width="1" opacity="0.4745098039215686" d="M 15.5 11 L 16 21.5 L 15 21.5 L 15.5 11 Z "></path><path fill="rgb(255,255,255)" stroke="rgb(255,255,255)" stroke-width="1" opacity="0.4745098039215686" d="M 56.5 12 L 57 16.5 L 56 16.5 L 56.5 12 Z "></path><path fill="rgb(255,255,255)" stroke="rgb(255,255,255)" stroke-width="1" opacity="0.4745098039215686" d="M 109.5 12 L 108.5 14 L 109.5 12 Z "></path><path fill="rgb(255,255,255)" stroke="rgb(255,255,255)" stroke-width="1" opacity="0.4745098039215686" d="M 86 15 L 88 15.5 L 86.5 22 L 86 15 Z "></path><path fill="rgb(255,255,255)" stroke="rgb(255,255,255)" stroke-width="1" opacity="0.4745098039215686" d="M 109.5 17 L 110 20.5 L 109 20.5 L 109.5 17 Z "></path><path fill="rgb(255,255,255)" stroke="rgb(255,255,255)" stroke-width="1" opacity="0.4745098039215686" d="M 42.5 19 L 43.5 21 L 42.5 19 Z "></path><path fill="rgb(255,255,255)" stroke="rgb(255,255,255)" stroke-width="1" opacity="0.4745098039215686" d="M 56.5 19 L 57 21.5 L 55 22.5 L 56.5 19 Z "></path><path fill="rgb(255,255,255)" stroke="rgb(255,255,255)" stroke-width="1" opacity="0.4745098039215686" d="M 63.5 21 L 62.5 23 L 63.5 21 Z "></path><path fill="rgb(255,255,255)" stroke="rgb(255,255,255)" stroke-width="1" opacity="0.4745098039215686" d="M 92.5 21 L 93.5 23 L 92.5 21 Z "></path><path fill="rgb(255,255,255)" stroke="rgb(255,255,255)" stroke-width="1" opacity="0.4745098039215686" d="M 4.5 29 L 3.5 31 L 4.5 29 Z "></path><path fill="rgb(255,255,255)" stroke="rgb(255,255,255)" stroke-width="1" opacity="0.4745098039215686" d="M 26.5 29 L 27 36.5 L 26 36.5 L 26.5 29 Z "></path><path fill="rgb(255,255,255)" stroke="rgb(255,255,255)" stroke-width="1" opacity="0.4745098039215686" d="M 83.5 29 L 84 39.5 L 83 39.5 L 83.5 29 Z "></path><path fill="rgb(255,255,255)" stroke="rgb(255,255,255)" stroke-width="1" opacity="0.4745098039215686" d="M 42.5 30 L 43 39.5 L 42 39.5 L 42.5 30 Z "></path><path fill="rgb(255,255,255)" stroke="rgb(255,255,255)" stroke-width="1" opacity="0.4745098039215686" d="M 67.5 30 L 68.5 32 L 67.5 30 Z "></path><path fill="rgb(255,255,255)" stroke="rgb(255,255,255)" stroke-width="1" opacity="0.4745098039215686" d="M 68.5 33 L 67.5 35 L 68.5 33 Z "></path><path fill="rgb(255,255,255)" stroke="rgb(255,255,255)" stroke-width="1" opacity="0.4745098039215686" d="M 23.5 37 L 22.5 39 L 23.5 37 Z "></path><path fill="rgb(255,255,255)" stroke="rgb(255,255,255)" stroke-width="1" opacity="0.4745098039215686" d="M 50.5 37 L 51.5 39 L 50.5 37 Z "></path><path fill="rgb(255,255,255)" stroke="rgb(255,255,255)" stroke-width="1" opacity="0.4745098039215686" d="M 3.5 38 L 4.5 40 L 3.5 38 Z "></path><path fill="rgb(255,255,255)" stroke="rgb(255,255,255)" stroke-width="1" opacity="0.9333333333333333" d="M 79.5 10 L 81 11.5 L 81 21.5 L 79 22.5 L 80 21.5 L 80 11.5 L 79.5 10 Z "></path><path fill="rgb(255,255,255)" stroke="rgb(255,255,255)" stroke-width="1" opacity="0.9333333333333333" d="M 54.5 11 L 55 20.5 L 54 20.5 L 54.5 11 Z "></path><path fill="rgb(255,255,255)" stroke="rgb(255,255,255)" stroke-width="1" opacity="0.9333333333333333" d="M 5.5 12 L 6 14.5 L 5 14.5 L 5.5 12 Z "></path><path fill="rgb(255,255,255)" stroke="rgb(255,255,255)" stroke-width="1" opacity="0.9333333333333333" d="M 17.5 12 L 18 14.5 L 17 14.5 L 17.5 12 Z "></path><path fill="rgb(255,255,255)" stroke="rgb(255,255,255)" stroke-width="1" opacity="0.9333333333333333" d="M 5.5 17 L 6 20.5 L 5 20.5 L 5.5 17 Z "></path><path fill="rgb(255,255,255)" stroke="rgb(255,255,255)" stroke-width="1" opacity="0.9333333333333333" d="M 17.5 17 L 18 20.5 L 17 20.5 L 17.5 17 Z "></path><path fill="rgb(255,255,255)" stroke="rgb(255,255,255)" stroke-width="1" opacity="0.9333333333333333" d="M 84.5 28 L 86 29.5 L 86 38.5 L 85 38.5 Q 85.8 30.3 84.5 28 Z "></path><path fill="rgb(255,255,255)" stroke="rgb(255,255,255)" stroke-width="1" opacity="0.9333333333333333" d="M 101.5 30 L 102 32.5 L 101 32.5 L 101.5 30 Z "></path><path fill="rgb(255,255,255)" stroke="rgb(255,255,255)" stroke-width="1" opacity="0.9333333333333333" d="M 101.5 35 L 102 38.5 L 101 38.5 L 101.5 35 Z "></path><path fill="rgb(255,255,255)" stroke="rgb(255,255,255)" stroke-width="1" opacity="1" d="M 5.5 10 L 12 11 L 13 20.5 Q 11.3 23.8 5.5 23 L 4 21.5 L 4 11.5 L 5.5 10 Z M 5 12 L 5 15 L 11 15 L 11 12 L 5 12 Z M 5 17 Q 3 23 11 21 L 12 19 Q 10 16 5 17 Z "></path><path fill="rgb(255,255,255)" stroke="rgb(255,255,255)" stroke-width="1" opacity="1" d="M 17.5 10 Q 25.1 8.5 24 12 L 17 12 L 17 15 L 23 15 L 23 17 L 17 17 L 17 21 L 23.5 21 L 24 23 Q 17.9 24.8 16 21.5 L 16 11.5 L 17.5 10 Z "></path><path fill="rgb(255,255,255)" stroke="rgb(255,255,255)" stroke-width="1" opacity="1" d="M 32.5 10 L 37 21.5 L 36 21.5 Q 36.5 18.5 29.5 20 L 27.5 23 L 27 21.5 L 32.5 10 Z M 33 13 L 30 18 L 35 18 L 33 13 Z "></path><path fill="rgb(255,255,255)" stroke="rgb(255,255,255)" stroke-width="1" opacity="1" d="M 55 10 Q 60.7 9 63 12.5 Q 63.8 17.8 61 19.5 L 62.5 22 Q 61.1 18 56 19 L 55.5 22 L 55 10 Z M 56 12 L 56 17 L 61 17 L 62 14 Q 61 11 56 12 Z "></path><path fill="rgb(255,255,255)" stroke="rgb(255,255,255)" stroke-width="1" opacity="1" d="M 85.5 10 L 92.5 19 L 93 11 L 95 11.5 L 95 22 L 92 20.5 L 86.5 14 L 85.5 22 L 85.5 10 Z "></path><path fill="rgb(255,255,255)" stroke="rgb(255,255,255)" stroke-width="1" opacity="1" d="M 103.5 10 L 109 12.5 L 107.5 13 L 102.5 12 Q 99 13 100 18.5 Q 101 22 106.5 21 L 108 18 Q 105 19 106 16 Q 110.9 14.2 109 20.5 L 103.5 23 L 99 19.5 L 98 16.5 L 101.5 11 L 103.5 10 Z "></path><path fill="rgb(255,255,255)" stroke="rgb(255,255,255)" stroke-width="1" opacity="1" d="M 40.5 11 L 41 18.5 L 43.5 21 Q 48 22 49 19.5 L 49 11.5 L 51 11 Q 52 18.5 49 22 L 44.5 23 L 40 19.5 L 40.5 11 Z "></path><path fill="rgb(255,255,255)" stroke="rgb(255,255,255)" stroke-width="1" opacity="1" d="M 70 11 Q 73 9.8 72 13.5 L 76 22.5 L 75 22.5 L 73.5 20 Q 66.5 18.5 67 21.5 L 66 21.5 L 70 11 Z M 71 13 L 68 18 L 73 18 L 71 13 Z "></path><path fill="rgb(255,255,255)" stroke="rgb(255,255,255)" stroke-width="1" opacity="1" d="M 79.5 11 L 80 21.5 L 79 21.5 L 79.5 11 Z "></path><path fill="rgb(255,255,255)" stroke="rgb(255,255,255)" stroke-width="1" opacity="1" d="M 113 16 L 119 16 L 119 18 L 113 18 L 113 16 Z "></path><path fill="rgb(255,255,255)" stroke="rgb(255,255,255)" stroke-width="1" opacity="1" d="M 7.5 28 L 13 30.5 L 11.5 30 Q 5.3 28.8 4 32.5 Q 3 38 6.5 39 Q 11.2 40.2 12.5 38 L 11.5 40 L 7.5 41 L 4 38.5 L 3 32.5 L 5.5 29 L 7.5 28 Z "></path><path fill="rgb(255,255,255)" stroke="rgb(255,255,255)" stroke-width="1" opacity="1" d="M 37 28 L 45.5 28 L 46 30 L 42 30 L 42 40.5 L 41 40.5 L 41 30.5 L 37 30 L 37 28 Z "></path><path fill="rgb(255,255,255)" stroke="rgb(255,255,255)" stroke-width="1" opacity="1" d="M 62 28 Q 67.7 27 70 30.5 L 71 32.5 L 68 36.5 L 70 39.5 L 66.5 37 Q 61.7 35.3 63 39.5 L 62 39.5 L 62 28 Z M 63 30 L 63 35 L 69 35 L 69 32 Q 68 29 63 30 Z "></path><path fill="rgb(255,255,255)" stroke="rgb(255,255,255)" stroke-width="1" opacity="1" d="M 73 28 L 80.5 28 L 81 30 L 74 30 L 74 33 L 80 33 L 80 35 L 74 35 L 74 39 L 80.5 39 L 81 41 L 73 41 L 73 28 Z "></path><path fill="rgb(255,255,255)" stroke="rgb(255,255,255)" stroke-width="1" opacity="1" d="M 101.5 28 L 108 29 L 109 38.5 Q 107.3 41.8 101.5 41 L 100 39.5 L 100 29.5 L 101.5 28 Z M 101 30 L 101 33 L 107 33 L 107 30 L 101 30 Z M 101 35 Q 99 41 107 39 L 108 37 Q 106 34 101 35 Z "></path><path fill="rgb(255,255,255)" stroke="rgb(255,255,255)" stroke-width="1" opacity="1" d="M 112.5 28 Q 120.1 26.5 119 30 L 113 30 L 113 33 L 118 33 L 118 35 Q 110.9 32.6 113 39 L 119 39 L 119 41 L 112.5 41 L 111 39.5 L 111 29.5 L 112.5 28 Z "></path><path fill="rgb(255,255,255)" stroke="rgb(255,255,255)" stroke-width="1" opacity="1" d="M 15 29 L 17 29.5 L 17 37.5 Q 18 40 22.5 39 L 25 36.5 L 25.5 29 L 26 37.5 Q 24.3 40.8 19.5 41 L 16 38.5 L 15 29 Z "></path><path fill="rgb(255,255,255)" stroke="rgb(255,255,255)" stroke-width="1" opacity="1" d="M 29 29 L 31 29.5 L 31 39 L 37 39 L 37 41 Q 30.9 42.8 29 39.5 L 29 29 Z "></path><path fill="rgb(255,255,255)" stroke="rgb(255,255,255)" stroke-width="1" opacity="1" d="M 48.5 29 L 49 36.5 L 51.5 39 Q 56 40 57 37.5 L 57 29.5 L 59 29 Q 60 36.5 57 40 L 52.5 41 L 48 37.5 L 48.5 29 Z "></path><path fill="rgb(255,255,255)" stroke="rgb(255,255,255)" stroke-width="1" opacity="1" d="M 84.5 29 L 85 39 L 91.5 39 L 92 41 L 84 41 L 84.5 29 Z "></path><path fill="rgb(255,255,255)" stroke="rgb(255,255,255)" stroke-width="1" opacity="0.21176470588235294" d="M 3.5 10 L 4 22.5 L 3 22.5 L 3.5 10 Z "></path><path fill="rgb(255,255,255)" stroke="rgb(255,255,255)" stroke-width="1" opacity="0.21176470588235294" d="M 11.5 10 L 12.5 12 L 11.5 10 Z "></path><path fill="rgb(255,255,255)" stroke="rgb(255,255,255)" stroke-width="1" opacity="0.21176470588235294" d="M 48.5 10 L 49 17.5 L 48 17.5 L 48.5 10 Z "></path><path fill="rgb(255,255,255)" stroke="rgb(255,255,255)" stroke-width="1" opacity="0.21176470588235294" d="M 78.5 10 L 79 22.5 L 78 22.5 L 78.5 10 Z "></path><path fill="rgb(255,255,255)" stroke="rgb(255,255,255)" stroke-width="1" opacity="0.21176470588235294" d="M 86.5 10 L 88.5 13 L 86.5 10 Z "></path><path fill="rgb(255,255,255)" stroke="rgb(255,255,255)" stroke-width="1" opacity="0.21176470588235294" d="M 95.5 10 L 96 22.5 L 95 22.5 L 95.5 10 Z "></path><path fill="rgb(255,255,255)" stroke="rgb(255,255,255)" stroke-width="1" opacity="0.21176470588235294" d="M 51.5 11 L 52 17.5 L 51 17.5 L 51.5 11 Z "></path><path fill="rgb(255,255,255)" stroke="rgb(255,255,255)" stroke-width="1" opacity="0.21176470588235294" d="M 92.5 11 L 93 17.5 L 91 16.5 L 92.5 11 Z "></path><path fill="rgb(255,255,255)" stroke="rgb(255,255,255)" stroke-width="1" opacity="0.21176470588235294" d="M 89.5 18 L 91.5 21 L 89.5 18 Z "></path><path fill="rgb(255,255,255)" stroke="rgb(255,255,255)" stroke-width="1" opacity="0.21176470588235294" d="M 62.5 19 L 63.5 21 L 62.5 19 Z "></path><path fill="rgb(255,255,255)" stroke="rgb(255,255,255)" stroke-width="1" opacity="0.21176470588235294" d="M 50.5 20 L 48.5 23 L 50.5 20 Z "></path><path fill="rgb(255,255,255)" stroke="rgb(255,255,255)" stroke-width="1" opacity="0.21176470588235294" d="M 60.5 21 L 61.5 23 L 60.5 21 Z "></path><path fill="rgb(255,255,255)" stroke="rgb(255,255,255)" stroke-width="1" opacity="0.21176470588235294" d="M 31.5 28 L 32 38.5 L 31 38.5 L 31.5 28 Z "></path><path fill="rgb(255,255,255)" stroke="rgb(255,255,255)" stroke-width="1" opacity="0.21176470588235294" d="M 56.5 28 L 57 35.5 L 56 35.5 L 56.5 28 Z "></path><path fill="rgb(255,255,255)" stroke="rgb(255,255,255)" stroke-width="1" opacity="0.21176470588235294" d="M 99.5 28 L 100 40.5 L 99 40.5 L 99.5 28 Z "></path><path fill="rgb(255,255,255)" stroke="rgb(255,255,255)" stroke-width="1" opacity="0.21176470588235294" d="M 107.5 28 L 108.5 30 L 107.5 28 Z "></path><path fill="rgb(255,255,255)" stroke="rgb(255,255,255)" stroke-width="1" opacity="0.21176470588235294" d="M 13.5 29 Q 16.5 28.5 15 35.5 L 14 35.5 L 13 31.5 L 13.5 29 Z "></path><path fill="rgb(255,255,255)" stroke="rgb(255,255,255)" stroke-width="1" opacity="0.21176470588235294" d="M 17.5 29 L 18 36.5 L 17 36.5 L 17.5 29 Z "></path><path fill="rgb(255,255,255)" stroke="rgb(255,255,255)" stroke-width="1" opacity="0.21176470588235294" d="M 28.5 29 L 29 39.5 L 28 39.5 L 28.5 29 Z "></path><path fill="rgb(255,255,255)" stroke="rgb(255,255,255)" stroke-width="1" opacity="0.21176470588235294" d="M 59.5 29 L 60 35.5 L 59 35.5 L 59.5 29 Z "></path><path fill="rgb(255,255,255)" stroke="rgb(255,255,255)" stroke-width="1" opacity="0.21176470588235294" d="M 110.5 29 L 111 39.5 L 109 38.5 L 110 36.5 L 110 34.5 L 110.5 29 Z "></path><path fill="rgb(255,255,255)" stroke="rgb(255,255,255)" stroke-width="1" opacity="0.21176470588235294" d="M 113.5 30 L 114 32.5 L 113 32.5 L 113.5 30 Z "></path><path fill="rgb(255,255,255)" stroke="rgb(255,255,255)" stroke-width="1" opacity="0.21176470588235294" d="M 113.5 35 L 114 38.5 L 113 38.5 L 113.5 35 Z "></path><path fill="rgb(255,255,255)" stroke="rgb(255,255,255)" stroke-width="1" opacity="0.21176470588235294" d="M 15.5 38 L 17.5 41 L 15.5 38 Z "></path><path fill="rgb(255,255,255)" stroke="rgb(255,255,255)" stroke-width="1" opacity="0.21176470588235294" d="M 58.5 38 L 56.5 41 L 58.5 38 Z "></path><path fill="rgb(255,255,255)" stroke="rgb(255,255,255)" stroke-width="1" opacity="0.8235294117647058" d="M 84.5 11 L 85 21.5 L 86 22.5 L 84 21.5 L 84.5 11 Z "></path><path fill="rgb(255,255,255)" stroke="rgb(255,255,255)" stroke-width="1" opacity="0.8235294117647058" d="M 32.5 13 L 31.5 15 L 32.5 13 Z "></path><path fill="rgb(255,255,255)" stroke="rgb(255,255,255)" stroke-width="1" opacity="0.8235294117647058" d="M 70.5 13 L 71.5 15 L 70.5 13 Z "></path><path fill="rgb(255,255,255)" stroke="rgb(255,255,255)" stroke-width="1" opacity="0.8235294117647058" d="M 34.5 14 L 33.5 16 L 34.5 14 Z "></path><path fill="rgb(255,255,255)" stroke="rgb(255,255,255)" stroke-width="1" opacity="0.8235294117647058" d="M 68.5 14 L 69.5 16 L 68.5 14 Z "></path><path fill="rgb(255,255,255)" stroke="rgb(255,255,255)" stroke-width="1" opacity="0.8235294117647058" d="M 73.5 15 L 72.5 17 L 73.5 15 Z "></path><path fill="rgb(255,255,255)" stroke="rgb(255,255,255)" stroke-width="1" opacity="0.8235294117647058" d="M 60.5 20 L 63 20.5 Q 60.9 23.8 60.5 20 Z "></path><path fill="rgb(255,255,255)" stroke="rgb(255,255,255)" stroke-width="1" opacity="0.8235294117647058" d="M 75.5 20 L 74.5 22 L 75.5 20 Z "></path><path fill="rgb(255,255,255)" stroke="rgb(255,255,255)" stroke-width="1" opacity="0.8235294117647058" d="M 37.5 21 L 38 23 L 36 22.5 L 37.5 21 Z "></path><path fill="rgb(255,255,255)" stroke="rgb(255,255,255)" stroke-width="1" opacity="0.8235294117647058" d="M 24.5 29 L 25 36.5 L 24 36.5 L 24.5 29 Z "></path><path fill="rgb(255,255,255)" stroke="rgb(255,255,255)" stroke-width="1" opacity="0.8235294117647058" d="M 40.5 30 L 41 39.5 L 40 39.5 L 40.5 30 Z "></path><path fill="rgb(255,255,255)" stroke="rgb(255,255,255)" stroke-width="1" opacity="0.8235294117647058" d="M 69.5 35 L 68.5 37 L 69.5 35 Z "></path><path fill="rgb(255,255,255)" stroke="rgb(255,255,255)" stroke-width="1" opacity="0.6431372549019608" d="M 40.5 10 Q 43.5 11.5 42 17.5 L 41 17.5 L 40.5 11 L 39.5 18 L 39 11.5 L 40.5 10 Z "></path><path fill="rgb(255,255,255)" stroke="rgb(255,255,255)" stroke-width="1" opacity="0.6431372549019608" d="M 62.5 17 L 61.5 19 L 62.5 17 Z "></path><path fill="rgb(255,255,255)" stroke="rgb(255,255,255)" stroke-width="1" opacity="0.6431372549019608" d="M 48.5 28 Q 51.5 29.5 50 35.5 L 49 35.5 L 48.5 29 L 47.5 36 L 47 29.5 L 48.5 28 Z "></path><path fill="rgb(255,255,255)" stroke="rgb(255,255,255)" stroke-width="1" opacity="0.6431372549019608" d="M 61.5 29 L 62 39.5 L 61 39.5 L 61.5 29 Z "></path><path fill="rgb(255,255,255)" stroke="rgb(255,255,255)" stroke-width="1" opacity="0.6431372549019608" d="M 72.5 29 L 73 39.5 L 72 39.5 L 72.5 29 Z "></path><path fill="rgb(255,255,255)" stroke="rgb(255,255,255)" stroke-width="1" opacity="0.6431372549019608" d="M 63.5 30 L 64 34.5 L 63 34.5 L 63.5 30 Z "></path><path fill="rgb(255,255,255)" stroke="rgb(255,255,255)" stroke-width="1" opacity="0.6431372549019608" d="M 74.5 30 L 75 32.5 L 74 32.5 L 74.5 30 Z "></path><path fill="rgb(255,255,255)" stroke="rgb(255,255,255)" stroke-width="1" opacity="0.6431372549019608" d="M 74.5 35 L 75 38.5 L 74 38.5 L 74.5 35 Z "></path><path fill="rgb(255,255,255)" stroke="rgb(255,255,255)" stroke-width="1" opacity="0.6431372549019608" d="M 63.5 37 L 64 39.5 L 63 39.5 L 63.5 37 Z "></path></svg>