<svg width="228" height="228" version="1.1" xmlns="http://www.w3.org/2000/svg"><path fill="rgb(228,233,238)" stroke="rgb(228,233,238)" stroke-width="1" opacity="1" d="M 67.5 39 L 68.5 41 L 67.5 39 Z "></path><path fill="rgb(228,233,238)" stroke="rgb(228,233,238)" stroke-width="1" opacity="1" d="M 71.5 42 L 73.5 45 L 71.5 42 Z "></path><path fill="rgb(228,233,238)" stroke="rgb(228,233,238)" stroke-width="1" opacity="1" d="M 76.5 46 L 77.5 48 L 76.5 46 Z "></path><path fill="rgb(228,233,238)" stroke="rgb(228,233,238)" stroke-width="1" opacity="1" d="M 80.5 49 L 82.5 52 L 80.5 49 Z "></path><path fill="rgb(228,233,238)" stroke="rgb(228,233,238)" stroke-width="1" opacity="1" d="M 84.5 52 L 86.5 55 L 84.5 52 Z "></path><path fill="rgb(228,233,238)" stroke="rgb(228,233,238)" stroke-width="1" opacity="1" d="M 179.5 52 L 180 54.5 L 179 54.5 L 179.5 52 Z "></path><path fill="rgb(228,233,238)" stroke="rgb(228,233,238)" stroke-width="1" opacity="1" d="M 89.5 56 L 91.5 59 L 89.5 56 Z "></path><path fill="rgb(228,233,238)" stroke="rgb(228,233,238)" stroke-width="1" opacity="1" d="M 172.5 56 L 177 56.5 L 172.5 57 L 172.5 56 Z "></path><path fill="rgb(228,233,238)" stroke="rgb(228,233,238)" stroke-width="1" opacity="1" d="M 179.5 56 L 184 56.5 L 179.5 57 L 179.5 56 Z "></path><path fill="rgb(228,233,238)" stroke="rgb(228,233,238)" stroke-width="1" opacity="1" d="M 93.5 59 L 95.5 62 L 93.5 59 Z "></path><path fill="rgb(228,233,238)" stroke="rgb(228,233,238)" stroke-width="1" opacity="1" d="M 179.5 60 L 180 63.5 L 179 63.5 L 179.5 60 Z "></path><path fill="rgb(228,233,238)" stroke="rgb(228,233,238)" stroke-width="1" opacity="1" d="M 97.5 62 L 99.5 65 L 97.5 62 Z "></path><path fill="rgb(228,233,238)" stroke="rgb(228,233,238)" stroke-width="1" opacity="1" d="M 102.5 66 L 104.5 69 L 102.5 66 Z "></path><path fill="rgb(228,233,238)" stroke="rgb(228,233,238)" stroke-width="1" opacity="1" d="M 106.5 69 L 162 112.5 L 160.5 112 L 105.5 96 L 88 89.5 L 106.5 69 Z "></path><path fill="rgb(228,233,238)" stroke="rgb(228,233,238)" stroke-width="1" opacity="1" d="M 193.5 113 L 192.5 115 L 178 114.5 L 192.5 114 L 193.5 113 Z "></path><path fill="rgb(228,233,238)" stroke="rgb(228,233,238)" stroke-width="1" opacity="1" d="M 29.5 114 L 177 114.5 L 29.5 115 L 29.5 114 Z "></path><path fill="rgb(228,233,238)" stroke="rgb(228,233,238)" stroke-width="1" opacity="1" d="M 97.5 125 L 98 142.5 L 97 142.5 L 97.5 125 Z "></path><path fill="rgb(228,233,238)" stroke="rgb(228,233,238)" stroke-width="1" opacity="1" d="M 40.5 126 L 41.5 128 L 40.5 126 Z "></path><path fill="rgb(228,233,238)" stroke="rgb(228,233,238)" stroke-width="1" opacity="1" d="M 161.5 126 L 162 128.5 L 161 128.5 L 161.5 126 Z "></path><path fill="rgb(228,233,238)" stroke="rgb(228,233,238)" stroke-width="1" opacity="1" d="M 32.5 128 L 31.5 130 L 32.5 128 Z "></path><path fill="rgb(228,233,238)" stroke="rgb(228,233,238)" stroke-width="1" opacity="1" d="M 83.5 130 L 86 130.5 L 83.5 131 L 83.5 130 Z "></path><path fill="rgb(228,233,238)" stroke="rgb(228,233,238)" stroke-width="1" opacity="1" d="M 136.5 130 Q 140.3 129.3 141 131.5 L 140.5 140 L 140 131 Q 135.6 132 136.5 130 Z "></path><path fill="rgb(228,233,238)" stroke="rgb(228,233,238)" stroke-width="1" opacity="1" d="M 145.5 130 L 149 130.5 L 145.5 131 L 145.5 130 Z "></path><path fill="rgb(228,233,238)" stroke="rgb(228,233,238)" stroke-width="1" opacity="1" d="M 152.5 130 L 154 130.5 L 152 131 L 151.5 143 L 151 131.5 L 152.5 130 Z "></path><path fill="rgb(228,233,238)" stroke="rgb(228,233,238)" stroke-width="1" opacity="1" d="M 155.5 130 L 156.5 132 L 155.5 130 Z "></path><path fill="rgb(228,233,238)" stroke="rgb(228,233,238)" stroke-width="1" opacity="1" d="M 162.5 130 L 166 130.5 L 162.5 131 L 162.5 130 Z "></path><path fill="rgb(228,233,238)" stroke="rgb(228,233,238)" stroke-width="1" opacity="1" d="M 46.5 131 L 45.5 133 L 46.5 131 Z "></path><path fill="rgb(228,233,238)" stroke="rgb(228,233,238)" stroke-width="1" opacity="1" d="M 170.5 131 L 169.5 133 L 170.5 131 Z "></path><path fill="rgb(228,233,238)" stroke="rgb(228,233,238)" stroke-width="1" opacity="1" d="M 125.5 134 L 124.5 136 L 125.5 134 Z "></path><path fill="rgb(228,233,238)" stroke="rgb(228,233,238)" stroke-width="1" opacity="1" d="M 160.5 134 L 162 134.5 L 162 144.5 L 161 144.5 Q 161.8 136.3 160.5 134 Z "></path><path fill="rgb(228,233,238)" stroke="rgb(228,233,238)" stroke-width="1" opacity="1" d="M 47.5 135 L 50 136.5 L 48.5 137 L 47.5 135 Z "></path><path fill="rgb(228,233,238)" stroke="rgb(228,233,238)" stroke-width="1" opacity="1" d="M 95.5 136 L 96 138.5 L 95 138.5 L 95.5 136 Z "></path><path fill="rgb(228,233,238)" stroke="rgb(228,233,238)" stroke-width="1" opacity="1" d="M 43.5 138 L 44.5 140 Q 41.7 140.7 43.5 138 Z "></path><path fill="rgb(228,233,238)" stroke="rgb(228,233,238)" stroke-width="1" opacity="1" d="M 52.5 138 Q 55.1 137.2 54 140.5 L 53 140.5 L 52.5 138 Z "></path><path fill="rgb(228,233,238)" stroke="rgb(228,233,238)" stroke-width="1" opacity="1" d="M 48.5 139 L 48 140.5 L 47.5 142 L 47 140.5 L 48.5 139 Z "></path><path fill="rgb(228,233,238)" stroke="rgb(228,233,238)" stroke-width="1" opacity="1" d="M 28.5 142 L 29.5 144 L 28.5 142 Z "></path><path fill="rgb(228,233,238)" stroke="rgb(228,233,238)" stroke-width="1" opacity="1" d="M 34.5 142 L 37 142.5 L 34.5 143 L 34.5 142 Z "></path><path fill="rgb(228,233,238)" stroke="rgb(228,233,238)" stroke-width="1" opacity="1" d="M 124.5 145 L 127 145.5 L 124.5 146 L 124.5 145 Z "></path><path fill="rgb(228,233,238)" stroke="rgb(228,233,238)" stroke-width="1" opacity="1" d="M 140.5 145 L 143 145.5 L 140.5 146 L 140.5 145 Z "></path><path fill="rgb(228,233,238)" stroke="rgb(228,233,238)" stroke-width="1" opacity="1" d="M 174.5 145 L 177 145.5 L 174.5 146 L 174.5 145 Z "></path><path fill="rgb(228,233,238)" stroke="rgb(228,233,238)" stroke-width="1" opacity="1" d="M 188.5 145 L 191 145.5 L 188.5 146 L 188.5 145 Z "></path><path fill="rgb(228,233,238)" stroke="rgb(228,233,238)" stroke-width="1" opacity="1" d="M 137.5 155 L 138 166.5 L 137 166.5 L 137.5 155 Z "></path><path fill="rgb(228,233,238)" stroke="rgb(228,233,238)" stroke-width="1" opacity="1" d="M 182.5 156 L 183 165.5 L 182 165.5 L 182.5 156 Z "></path><path fill="rgb(228,233,238)" stroke="rgb(228,233,238)" stroke-width="1" opacity="1" d="M 119.5 159 L 120 161.5 L 119 161.5 L 119.5 159 Z "></path><path fill="rgb(228,233,238)" stroke="rgb(228,233,238)" stroke-width="1" opacity="1" d="M 157.5 162 L 160 163.5 L 158.5 163 L 157.5 162 Z "></path><path fill="rgb(0,0,0)" stroke="rgb(0,0,0)" stroke-width="1" opacity="0" d="M 0 0 L 97 0.5 Q 54.8 8.3 31 34.5 Q 16 50 7 71.5 L 2 87.5 L 0.5 98 L 0 0 Z "></path><path fill="rgb(0,0,0)" stroke="rgb(0,0,0)" stroke-width="1" opacity="0" d="M 131.5 0 L 228 0 L 228 97.5 L 227 97.5 L 225 83.5 Q 220.7 67.8 213 55.5 Q 204.4 41.1 192.5 30 Q 177.3 15.7 156.5 7 L 140.5 2 L 131.5 1 L 131.5 0 Z "></path><path fill="rgb(0,0,0)" stroke="rgb(0,0,0)" stroke-width="1" opacity="0" d="M 0.5 130 Q 8.1 173.9 35.5 198 Q 50.7 212.3 71.5 221 Q 82.8 225.8 97 227.5 L 0 228 L 0.5 130 Z "></path><path fill="rgb(0,0,0)" stroke="rgb(0,0,0)" stroke-width="1" opacity="0" d="M 227.5 130 L 228 228 L 131 227.5 Q 173.2 219.7 197 193.5 Q 212 178 221 156.5 L 226 140.5 L 227.5 130 Z "></path><path fill="rgb(254,254,254)" stroke="rgb(254,254,254)" stroke-width="1" opacity="0.9882352941176471" d="M 97.5 0 L 130.5 0 L 156.5 7 Q 180.4 17.1 197 34.5 Q 216.1 53.9 225 83.5 L 228 98.5 L 228 129.5 Q 220 173.5 192.5 198 Q 173.3 216.3 144.5 225 L 130.5 228 L 97.5 228 Q 55.2 219.8 31 193.5 Q 11.9 174.1 3 144.5 L 0 129.5 L 0 98.5 Q 8 54.5 35.5 30 Q 50.7 15.7 71.5 7 L 97.5 0 Z M 100 1 L 85 4 L 68 10 Q 52 17 41 27 Q 9 52 1 100 L 1 129 L 6 151 Q 14 172 27 188 Q 52 219 100 227 L 129 227 L 151 222 Q 172 215 188 201 Q 219 176 227 129 L 227 100 L 222 78 Q 215 56 201 41 Q 182 17 151 6 L 129 1 L 100 1 Z "></path><path fill="rgb(254,254,254)" stroke="rgb(254,254,254)" stroke-width="1" opacity="0.9882352941176471" d="M 65.5 37 L 66.5 39 L 65.5 37 Z "></path><path fill="rgb(254,254,254)" stroke="rgb(254,254,254)" stroke-width="1" opacity="0.9882352941176471" d="M 74.5 44 L 75.5 46 L 74.5 44 Z "></path><path fill="rgb(254,254,254)" stroke="rgb(254,254,254)" stroke-width="1" opacity="0.9882352941176471" d="M 149.5 102 L 150.5 104 L 149.5 102 Z "></path><path fill="rgb(254,254,254)" stroke="rgb(254,254,254)" stroke-width="1" opacity="0.9882352941176471" d="M 62.5 125 L 63 128.5 L 62 128.5 L 62.5 125 Z "></path><path fill="rgb(254,254,254)" stroke="rgb(254,254,254)" stroke-width="1" opacity="0.9882352941176471" d="M 62.5 130 L 63 144.5 L 62 144.5 L 62.5 130 Z "></path><path fill="rgb(254,254,254)" stroke="rgb(254,254,254)" stroke-width="1" opacity="0.9882352941176471" d="M 64.5 130 L 65 142.5 L 64 142.5 L 64.5 130 Z "></path><path fill="rgb(254,254,254)" stroke="rgb(254,254,254)" stroke-width="1" opacity="0.9882352941176471" d="M 122.5 131 L 121.5 133 L 122.5 131 Z "></path><path fill="rgb(254,254,254)" stroke="rgb(254,254,254)" stroke-width="1" opacity="0.9882352941176471" d="M 161.5 131 L 162 133.5 L 161 133.5 L 161.5 131 Z "></path><path fill="rgb(254,254,254)" stroke="rgb(254,254,254)" stroke-width="1" opacity="0.9882352941176471" d="M 28.5 133 L 29.5 135 L 28.5 133 Z "></path><path fill="rgb(254,254,254)" stroke="rgb(254,254,254)" stroke-width="1" opacity="0.9882352941176471" d="M 52.5 133 L 53.5 135 L 52.5 133 Z "></path><path fill="rgb(254,254,254)" stroke="rgb(254,254,254)" stroke-width="1" opacity="0.9882352941176471" d="M 167.5 136 L 168 138.5 L 167 138.5 L 167.5 136 Z "></path><path fill="rgb(254,254,254)" stroke="rgb(254,254,254)" stroke-width="1" opacity="0.9882352941176471" d="M 99.5 158 L 100 165.5 L 99 165.5 L 99.5 158 Z "></path><path fill="rgb(255,255,255)" stroke="rgb(255,255,255)" stroke-width="1" opacity="1" d="M 99.5 1 L 128.5 1 L 150.5 6 Q 181.7 17.3 201 40.5 Q 214.5 56 222 77.5 L 227 99.5 L 227 128.5 Q 218.8 176.3 187.5 201 Q 172 214.5 150.5 222 L 128.5 227 L 99.5 227 Q 51.8 218.8 27 187.5 Q 13.5 172 6 150.5 L 1 128.5 L 1 99.5 Q 9.3 51.8 40.5 27 Q 52.2 16.7 67.5 10 L 84.5 4 L 99.5 1 Z M 65 37 L 29 113 L 30 115 L 194 115 L 180 71 L 177 69 L 177 73 L 164 112 L 163 113 L 65 37 Z M 177 51 Q 180 59 172 56 L 172 59 L 177 59 L 177 64 L 180 64 L 179 60 L 185 59 L 185 56 L 180 56 L 180 51 L 177 51 Z M 32 125 Q 27 126 28 134 L 32 136 L 40 138 L 39 142 Q 32 143 31 141 Q 32 136 27 138 L 28 143 L 34 146 L 41 145 L 44 140 L 44 143 L 49 146 L 53 145 Q 54 142 56 146 L 58 145 L 57 133 L 54 130 L 47 131 Q 44 132 45 136 Q 49 137 48 135 L 52 133 L 53 136 Q 47 135 45 139 L 43 137 Q 41 132 34 133 Q 29 131 34 128 L 38 129 Q 41 128 39 132 L 43 132 L 42 128 Q 39 124 32 125 Z M 59 125 Q 57 131 63 129 Q 65 123 59 125 Z M 97 125 L 97 145 L 102 145 L 103 135 L 105 144 Q 106 146 110 145 Q 113 142 113 136 L 114 136 L 114 145 L 119 145 L 119 125 L 112 125 L 109 137 L 105 127 L 104 125 L 97 125 Z M 161 125 Q 159 131 166 129 Q 168 123 161 125 Z M 80 126 Q 82 131 78 130 Q 77 135 80 135 L 80 144 Q 81 146 86 145 Q 88 141 83 142 L 83 134 L 86 134 Q 88 128 83 130 L 83 126 L 80 126 Z M 59 130 L 59 145 L 63 145 L 63 131 L 59 130 Z M 64 130 L 64 145 L 68 145 L 68 136 Q 68 133 73 133 L 74 135 L 74 145 L 77 145 L 77 133 L 74 130 L 69 131 L 64 130 Z M 125 130 L 123 131 Q 120 132 121 136 L 124 137 L 123 137 Q 119 138 120 143 L 125 146 L 135 145 Q 133 141 134 133 Q 132 129 125 130 Z M 136 130 L 136 143 L 141 146 L 144 145 L 150 145 L 150 130 L 145 130 L 145 141 L 141 141 L 141 130 L 136 130 Z M 151 130 L 151 145 L 156 145 L 156 137 L 158 135 L 161 135 L 161 145 L 166 145 L 166 131 L 163 130 L 161 130 L 158 131 L 151 130 Z M 173 130 L 171 131 L 167 137 L 168 142 L 174 146 L 179 145 L 183 140 L 183 143 L 189 146 L 194 145 L 197 140 Q 192 139 191 142 L 187 140 L 197 139 Q 198 132 193 130 L 186 131 L 183 135 L 182 134 Q 180 129 173 130 Z M 87 136 L 87 139 L 96 139 L 96 136 L 87 136 Z M 96 155 Q 95 158 100 157 L 99 159 Q 97 165 101 167 L 102 167 L 102 157 L 106 157 L 106 155 L 96 155 Z M 112 155 L 108 159 L 109 165 Q 110 168 117 167 L 120 163 L 119 158 Q 118 154 112 155 Z M 123 155 L 123 165 L 126 167 Q 132 168 133 165 L 133 156 L 131 155 Q 132 162 130 165 L 126 164 L 126 155 L 123 155 Z M 137 155 L 137 167 L 140 167 L 140 162 L 144 164 Q 143 169 147 167 L 146 163 L 147 156 Q 144 154 137 155 Z M 151 155 L 151 167 L 153 167 L 153 156 L 151 155 Z M 160 155 L 157 158 L 158 161 L 165 164 Q 164 166 160 165 L 159 162 Q 156 161 157 165 Q 158 168 165 167 Q 168 166 167 161 L 162 159 Q 159 160 160 157 Q 165 155 164 159 Q 167 160 166 157 Q 165 154 160 155 Z M 171 155 L 171 167 L 173 167 L 174 161 L 175 165 Q 174 169 178 167 L 179 163 L 180 163 Q 178 169 183 167 L 183 155 L 179 155 L 177 163 L 174 157 Q 175 153 171 155 Z M 187 155 L 187 167 L 196 167 Q 197 163 190 165 L 190 162 Q 196 164 195 160 Q 190 161 189 159 L 190 157 L 195 157 L 195 155 L 187 155 Z "></path><path fill="rgb(255,255,255)" stroke="rgb(255,255,255)" stroke-width="1" opacity="1" d="M 126.5 134 Q 130.3 133 129 136 L 125 135.5 L 126.5 134 Z "></path><path fill="rgb(255,255,255)" stroke="rgb(255,255,255)" stroke-width="1" opacity="1" d="M 174.5 134 L 177 134 L 177.5 136 L 182 136 L 182 139 L 177 139 L 177 140.5 L 174.5 142 L 172 137.5 L 174.5 134 Z "></path><path fill="rgb(255,255,255)" stroke="rgb(255,255,255)" stroke-width="1" opacity="1" d="M 188.5 134 L 192 135.5 L 187.5 136 L 188.5 134 Z "></path><path fill="rgb(255,255,255)" stroke="rgb(255,255,255)" stroke-width="1" opacity="1" d="M 49.5 139 Q 54.8 137.5 53 142 L 48 142 L 48 140.5 L 49.5 139 Z "></path><path fill="rgb(255,255,255)" stroke="rgb(255,255,255)" stroke-width="1" opacity="1" d="M 126.5 139 Q 129.8 137.9 129 140.5 L 125 142 L 126.5 139 Z "></path><path fill="rgb(255,255,255)" stroke="rgb(255,255,255)" stroke-width="1" opacity="1" d="M 112.5 157 Q 116.3 156.3 117 158.5 Q 118.3 163.8 115.5 165 Q 111.8 165.8 111 163.5 Q 109.8 158.3 112.5 157 Z "></path><path fill="rgb(255,255,255)" stroke="rgb(255,255,255)" stroke-width="1" opacity="1" d="M 140 157 Q 145.6 155.1 144 160 Q 138.4 161.9 140 157 Z "></path><path fill="rgb(188,197,176)" stroke="rgb(188,197,176)" stroke-width="1" opacity="1" d="M 64.5 38 L 106 69 L 105.5 71 L 103.5 71 L 76.5 79 L 66 83.5 L 68 84.5 L 66 85 L 66 100.5 L 67 101.5 Q 64.5 103 66 108.5 L 66.5 111 Q 68.8 111.8 68 109.5 L 98.5 78 L 88.5 90 L 114 98.5 L 111.5 99 L 110 98.5 Q 110.8 100.8 108.5 100 L 106.5 99 L 106.5 101 L 103.5 100 L 103.5 102 L 100.5 101 L 100 103 L 97.5 102 L 97 104 L 93.5 103 L 93.5 105 L 90.5 104 L 90.5 106 L 87.5 105 L 87.5 107 L 84.5 106 L 84.5 108 L 81.5 107 L 81.5 109 L 78.5 108 L 78 110 L 75.5 109 L 75 111 L 71.5 110 L 71.5 112 L 68.5 111 L 68.5 113 L 65 112.5 L 65 83.5 L 64 82.5 L 64 41.5 L 65 39.5 L 63 39.5 L 64.5 38 Z "></path><path fill="rgb(188,197,176)" stroke="rgb(188,197,176)" stroke-width="1" opacity="1" d="M 178.5 51 L 178 52.5 L 177.5 57 L 177 52.5 L 178.5 51 Z "></path><path fill="rgb(188,197,176)" stroke="rgb(188,197,176)" stroke-width="1" opacity="1" d="M 184.5 57 L 183.5 59 L 179 58.5 L 184.5 57 Z "></path><path fill="rgb(188,197,176)" stroke="rgb(188,197,176)" stroke-width="1" opacity="1" d="M 172.5 58 Q 177 57 178 59.5 L 177.5 64 L 177 59 L 172.5 59 L 172.5 58 Z "></path><path fill="rgb(188,197,176)" stroke="rgb(188,197,176)" stroke-width="1" opacity="1" d="M 178.5 69 L 178 70.5 L 177.5 72 L 177 70.5 L 178.5 69 Z "></path><path fill="rgb(188,197,176)" stroke="rgb(188,197,176)" stroke-width="1" opacity="1" d="M 107.5 71 L 115 77.5 L 111.5 75 L 108.5 73 L 107 73.5 L 107.5 71 Z "></path><path fill="rgb(188,197,176)" stroke="rgb(188,197,176)" stroke-width="1" opacity="1" d="M 116.5 78 L 157 109.5 L 155.5 109 L 119.5 82 L 116.5 78 Z "></path><path fill="rgb(188,197,176)" stroke="rgb(188,197,176)" stroke-width="1" opacity="1" d="M 69.5 85 L 72 85.5 L 69.5 86 L 69.5 85 Z "></path><path fill="rgb(188,197,176)" stroke="rgb(188,197,176)" stroke-width="1" opacity="1" d="M 169.5 95 L 178 113.5 L 162.5 114 L 162.5 113 Q 164.8 113.8 164 111.5 L 169.5 95 Z "></path><path fill="rgb(188,197,176)" stroke="rgb(188,197,176)" stroke-width="1" opacity="1" d="M 98.5 125 L 104 125.5 L 98.5 126 L 98.5 125 Z "></path><path fill="rgb(188,197,176)" stroke="rgb(188,197,176)" stroke-width="1" opacity="1" d="M 113.5 125 Q 118 124 119 126.5 L 118.5 145 L 118 126 L 113.5 126 L 113.5 125 Z "></path><path fill="rgb(188,197,176)" stroke="rgb(188,197,176)" stroke-width="1" opacity="1" d="M 162.5 125 L 166 125.5 L 162.5 126 L 162.5 125 Z "></path><path fill="rgb(188,197,176)" stroke="rgb(188,197,176)" stroke-width="1" opacity="1" d="M 39.5 130 L 41.5 131 L 43 130.5 L 40.5 132 L 39.5 130 Z "></path><path fill="rgb(188,197,176)" stroke="rgb(188,197,176)" stroke-width="1" opacity="1" d="M 49.5 130 L 54 130.5 L 49.5 131 L 49.5 130 Z "></path><path fill="rgb(188,197,176)" stroke="rgb(188,197,176)" stroke-width="1" opacity="1" d="M 154.5 130 L 155.5 132 L 154.5 130 Z "></path><path fill="rgb(188,197,176)" stroke="rgb(188,197,176)" stroke-width="1" opacity="1" d="M 132.5 131 L 133.5 133 L 132.5 131 Z "></path><path fill="rgb(188,197,176)" stroke="rgb(188,197,176)" stroke-width="1" opacity="1" d="M 149.5 131 L 150 143.5 L 149 143.5 L 149.5 131 Z "></path><path fill="rgb(188,197,176)" stroke="rgb(188,197,176)" stroke-width="1" opacity="1" d="M 179.5 131 L 180.5 133 L 179.5 131 Z "></path><path fill="rgb(188,197,176)" stroke="rgb(188,197,176)" stroke-width="1" opacity="1" d="M 114.5 133 L 115 135 L 113 134.5 L 114.5 133 Z "></path><path fill="rgb(188,197,176)" stroke="rgb(188,197,176)" stroke-width="1" opacity="1" d="M 56.5 134 L 57 140.5 L 56 140.5 L 56.5 134 Z "></path><path fill="rgb(188,197,176)" stroke="rgb(188,197,176)" stroke-width="1" opacity="1" d="M 121.5 135 L 124 135.5 L 121.5 136 L 121.5 135 Z "></path><path fill="rgb(188,197,176)" stroke="rgb(188,197,176)" stroke-width="1" opacity="1" d="M 67.5 136 L 68 144.5 L 67 144.5 L 67.5 136 Z "></path><path fill="rgb(188,197,176)" stroke="rgb(188,197,176)" stroke-width="1" opacity="1" d="M 107.5 136 L 108.5 138 L 107.5 136 Z "></path><path fill="rgb(188,197,176)" stroke="rgb(188,197,176)" stroke-width="1" opacity="1" d="M 46.5 137 L 45.5 139 L 46.5 137 Z "></path><path fill="rgb(188,197,176)" stroke="rgb(188,197,176)" stroke-width="1" opacity="1" d="M 182.5 137 L 183 138.5 L 181 139.5 L 182.5 137 Z "></path><path fill="rgb(188,197,176)" stroke="rgb(188,197,176)" stroke-width="1" opacity="1" d="M 44.5 140 L 45 142.5 L 44 142.5 L 44.5 140 Z "></path><path fill="rgb(188,197,176)" stroke="rgb(188,197,176)" stroke-width="1" opacity="1" d="M 140.5 140 L 141.5 142 L 140.5 140 Z "></path><path fill="rgb(188,197,176)" stroke="rgb(188,197,176)" stroke-width="1" opacity="1" d="M 172.5 140 L 173.5 142 L 172.5 140 Z "></path><path fill="rgb(188,197,176)" stroke="rgb(188,197,176)" stroke-width="1" opacity="1" d="M 177.5 140 L 176.5 142 L 177.5 140 Z "></path><path fill="rgb(188,197,176)" stroke="rgb(188,197,176)" stroke-width="1" opacity="1" d="M 80.5 143 L 81.5 145 L 80.5 143 Z "></path><path fill="rgb(188,197,176)" stroke="rgb(188,197,176)" stroke-width="1" opacity="1" d="M 111.5 155 L 111.5 158 L 109 157.5 L 111.5 155 Z "></path><path fill="rgb(188,197,176)" stroke="rgb(188,197,176)" stroke-width="1" opacity="1" d="M 125.5 155 L 126 163.5 L 125 163.5 L 125.5 155 Z "></path><path fill="rgb(188,197,176)" stroke="rgb(188,197,176)" stroke-width="1" opacity="1" d="M 159.5 155 L 158.5 157 L 159.5 155 Z "></path><path fill="rgb(188,197,176)" stroke="rgb(188,197,176)" stroke-width="1" opacity="1" d="M 117.5 156 L 118.5 158 L 117.5 156 Z "></path><path fill="rgb(188,197,176)" stroke="rgb(188,197,176)" stroke-width="1" opacity="1" d="M 123.5 156 L 124 162.5 L 123 162.5 L 123.5 156 Z "></path><path fill="rgb(188,197,176)" stroke="rgb(188,197,176)" stroke-width="1" opacity="1" d="M 101.5 157 L 102 164.5 L 101 164.5 L 101.5 157 Z "></path><path fill="rgb(188,197,176)" stroke="rgb(188,197,176)" stroke-width="1" opacity="1" d="M 139.5 157 L 140 160 L 143 160.5 L 140.5 161 Q 138 160 139.5 157 Z "></path><path fill="rgb(188,197,176)" stroke="rgb(188,197,176)" stroke-width="1" opacity="1" d="M 159.5 158 L 160.5 160 L 159.5 158 Z "></path><path fill="rgb(188,197,176)" stroke="rgb(188,197,176)" stroke-width="1" opacity="1" d="M 117.5 159 L 118 162.5 L 117 162.5 L 117.5 159 Z "></path><path fill="rgb(188,197,176)" stroke="rgb(188,197,176)" stroke-width="1" opacity="1" d="M 144.5 159 L 145.5 161 L 144.5 159 Z "></path><path fill="rgb(188,197,176)" stroke="rgb(188,197,176)" stroke-width="1" opacity="1" d="M 178.5 159 L 181 159.5 Q 179.5 165 182 166.5 L 180 167 Q 180.9 160.7 178.5 159 Z "></path><path fill="rgb(188,197,176)" stroke="rgb(188,197,176)" stroke-width="1" opacity="1" d="M 175.5 161 L 174.5 163 L 175.5 161 Z "></path><path fill="rgb(188,197,176)" stroke="rgb(188,197,176)" stroke-width="1" opacity="1" d="M 189.5 161 L 193 161.5 L 189.5 162 L 189.5 161 Z "></path><path fill="rgb(188,197,176)" stroke="rgb(188,197,176)" stroke-width="1" opacity="1" d="M 139.5 162 L 140 165.5 L 139 165.5 L 139.5 162 Z "></path><path fill="rgb(188,197,176)" stroke="rgb(188,197,176)" stroke-width="1" opacity="1" d="M 166.5 162 L 167 164.5 L 164 166.5 L 164.5 164 L 166 164.5 L 166.5 162 Z "></path><path fill="rgb(188,197,176)" stroke="rgb(188,197,176)" stroke-width="1" opacity="1" d="M 144.5 163 L 145 165.5 L 144 165.5 L 144.5 163 Z "></path><path fill="rgb(188,197,176)" stroke="rgb(188,197,176)" stroke-width="1" opacity="1" d="M 109.5 164 L 112 164.5 L 111.5 167 L 109.5 164 Z "></path><path fill="rgb(209,38,48)" stroke="rgb(209,38,48)" stroke-width="1" opacity="1" d="M 178.5 70 L 187 94.5 L 187 98.5 L 182.5 105 L 174.5 105 L 173 103.5 L 170 97.5 L 170 93.5 L 178.5 70 Z "></path><path fill="rgb(209,38,48)" stroke="rgb(209,38,48)" stroke-width="1" opacity="1" d="M 97 155 L 100.5 156 L 105 155 Q 106.2 158.7 101 157 L 101 164.5 L 101.5 166 L 100 165.5 L 100 157 Q 95.9 158.3 97 155 Z "></path><path fill="rgb(209,38,48)" stroke="rgb(209,38,48)" stroke-width="1" opacity="1" d="M 112.5 155 Q 118.3 154.3 119 158.5 Q 120.3 165.8 115.5 167 Q 109.8 167.8 109 163.5 Q 107.8 156.3 112.5 155 Z M 114 156 L 111 157 L 110 160 L 111 165 L 114 166 L 116 165 Q 119 164 118 160 L 114 156 Z "></path><path fill="rgb(209,38,48)" stroke="rgb(209,38,48)" stroke-width="1" opacity="1" d="M 124.5 155 L 125 163.5 L 126.5 165 L 128.5 166 L 131 165 L 131 156.5 L 133 156 L 132 166 L 126.5 167 L 124 164.5 L 124.5 155 Z "></path><path fill="rgb(209,38,48)" stroke="rgb(209,38,48)" stroke-width="1" opacity="1" d="M 139.5 155 L 146 156 L 145 161.5 L 146 166.5 L 145 166.5 Q 145.8 162.8 143.5 162 Q 136.8 159.8 139 166.5 L 138 166.5 L 138 156.5 L 139.5 155 Z M 139 157 L 141 161 L 145 160 L 145 157 L 139 157 Z "></path><path fill="rgb(209,38,48)" stroke="rgb(209,38,48)" stroke-width="1" opacity="1" d="M 160.5 155 Q 165.3 154.3 166 157.5 L 165.5 159 L 161.5 156 Q 157 158 160.5 160 L 166 161 Q 167 165.7 163.5 167 Q 158.8 167.8 158 164.5 L 158.5 163 L 162.5 166 L 165 165 Q 166.7 160.9 162.5 162 L 158 159.5 Q 157.5 155.5 160.5 155 Z "></path><path fill="rgb(209,38,48)" stroke="rgb(209,38,48)" stroke-width="1" opacity="1" d="M 172.5 155 L 176.5 164 L 180.5 155 L 182 156.5 L 182 165.5 L 181 165.5 L 180.5 159 L 176.5 167 L 172.5 159 L 172 160.5 L 173 166 L 171 165.5 L 171 156.5 L 172.5 155 Z "></path><path fill="rgb(209,38,48)" stroke="rgb(209,38,48)" stroke-width="1" opacity="1" d="M 188.5 155 Q 196.1 153.5 195 157 L 189 157 L 189 160 L 194 160 L 194 161.5 L 192.5 161 Q 186.8 159.4 189 165 L 195 165 L 195 167 L 188.5 167 L 187 165.5 L 188 160.5 L 187 156.5 L 188.5 155 Z "></path><path fill="rgb(209,38,48)" stroke="rgb(209,38,48)" stroke-width="1" opacity="1" d="M 151 156 L 153 156.5 L 153 166 L 151 165.5 L 151 156 Z "></path><path fill="rgb(13,64,35)" stroke="rgb(13,64,35)" stroke-width="1" opacity="1" d="M 178.5 52 L 179 57 L 184 57.5 L 179 58 L 178.5 63 L 178 58 L 173 57.5 L 178 57 L 178.5 52 Z "></path><path fill="rgb(13,64,35)" stroke="rgb(13,64,35)" stroke-width="1" opacity="1" d="M 61.5 84 L 64 84.5 L 64 111.5 Q 66.3 112.8 63.5 114 L 30.5 114 L 30 112.5 L 41.5 90 L 61.5 84 Z "></path><path fill="rgb(13,64,35)" stroke="rgb(13,64,35)" stroke-width="1" opacity="1" d="M 174.5 105 L 183 105.5 L 178.5 113 L 174.5 105 Z M 178 108 L 179 110 Q 180 107 178 108 Z "></path><path fill="rgb(13,64,35)" stroke="rgb(13,64,35)" stroke-width="1" opacity="1" d="M 31.5 126 Q 38.3 125.1 41 127 L 42 131 Q 39.3 132.1 40 129.5 Q 38.6 126.4 33.5 127 L 31 128 Q 30 131.8 32.5 133 L 42 136.5 L 43 140.5 L 40.5 144 L 33.5 145 L 29 142.5 L 28 139 Q 30.7 137.9 30 140.5 Q 31.5 144.5 38.5 143 Q 41.5 142.5 41 138.5 Q 38 135 31.5 135 L 29 132.5 Q 28 127 31.5 126 Z "></path><path fill="rgb(13,64,35)" stroke="rgb(13,64,35)" stroke-width="1" opacity="1" d="M 60 126 Q 63 125 62 128 Q 59 129 60 126 Z "></path><path fill="rgb(13,64,35)" stroke="rgb(13,64,35)" stroke-width="1" opacity="1" d="M 98 126 L 104 126 L 104 128.5 L 107 134.5 L 107 138 Q 109.7 139.1 109 136.5 L 113.5 126 Q 118 125.5 118 126.5 L 118 144 L 115 143.5 L 115 132.5 L 113 133.5 L 110 144 Q 104.8 146.1 106 141.5 L 103 132 L 101 132.5 L 101 142.5 L 101.5 144 L 98 143.5 L 98 126 Z "></path><path fill="rgb(13,64,35)" stroke="rgb(13,64,35)" stroke-width="1" opacity="1" d="M 162 126 L 166 126 L 166 127.5 L 163.5 129 L 162 126 Z "></path><path fill="rgb(13,64,35)" stroke="rgb(13,64,35)" stroke-width="1" opacity="1" d="M 81.5 127 L 82 131 Q 86.1 129.7 85 133 L 82 133 L 82 141.5 L 85 143.5 L 81 144 L 81 133.5 L 79.5 133 L 78.5 131 L 81 131 L 81.5 127 Z "></path><path fill="rgb(13,64,35)" stroke="rgb(13,64,35)" stroke-width="1" opacity="1" d="M 48.5 131 Q 53.9 130.4 56 132 L 56 142.5 L 57 145 L 53.5 143 Q 52.1 145.6 47.5 145 Q 44.3 144.3 45 139.5 L 54 135.5 Q 55.1 132.2 52.5 133 L 50.5 132 L 45.5 135 L 46 133.5 Q 45.3 131.3 47.5 132 L 48.5 131 Z M 50 138 L 47 139 L 49 143 L 54 142 Q 56 136 50 138 Z "></path><path fill="rgb(13,64,35)" stroke="rgb(13,64,35)" stroke-width="1" opacity="1" d="M 60 131 L 62 131.5 L 62 144 L 60 143.5 L 60 131 Z "></path><path fill="rgb(13,64,35)" stroke="rgb(13,64,35)" stroke-width="1" opacity="1" d="M 65 131 Q 67.7 129.9 67 132.5 L 69.5 131 L 76 132 L 76 143.5 L 74 144 L 74 133.5 L 72.5 133 L 70.5 132 L 68 133 Q 65.9 136.4 67 144 L 65 143.5 L 65 131 Z "></path><path fill="rgb(13,64,35)" stroke="rgb(13,64,35)" stroke-width="1" opacity="1" d="M 124.5 131 Q 131.3 129.2 133 132.5 L 133 142.5 L 134 143.5 L 124.5 145 L 121 142.5 Q 120.3 137.8 123.5 137 Q 128.8 138.3 130 135.5 Q 131.3 131.3 126.5 133 Q 125.8 135.8 121.5 135 L 124.5 131 Z M 128 138 L 124 141 L 126 143 L 130 142 Q 132 137 128 138 Z "></path><path fill="rgb(13,64,35)" stroke="rgb(13,64,35)" stroke-width="1" opacity="1" d="M 137 131 L 140 131.5 L 140 140.5 Q 141.2 143 145 142 Q 147.1 138.6 146 131 L 149 131.5 L 149 144 L 144.5 143 Q 143.8 145.8 139.5 145 L 137 142.5 L 137 131 Z "></path><path fill="rgb(13,64,35)" stroke="rgb(13,64,35)" stroke-width="1" opacity="1" d="M 152 131 L 155 131 Q 154 134 157 133 Q 155.9 129.7 160 131 Q 161.7 135.1 157.5 134 Q 153.5 136.8 155 144 L 152 143.5 L 152 131 Z "></path><path fill="rgb(13,64,35)" stroke="rgb(13,64,35)" stroke-width="1" opacity="1" d="M 162 131 L 166 131.5 L 166 144 L 162 143.5 L 162 131 Z "></path><path fill="rgb(13,64,35)" stroke="rgb(13,64,35)" stroke-width="1" opacity="1" d="M 172.5 131 Q 179 130 181 133.5 Q 182.1 137.7 178 136 L 176.5 133 Q 172.5 132.5 172 135.5 Q 170.8 140.8 173.5 142 L 181 140 L 178.5 144 L 173.5 145 L 169 141.5 L 168 136.5 L 170 132 L 172.5 131 Z "></path><path fill="rgb(13,64,35)" stroke="rgb(13,64,35)" stroke-width="1" opacity="1" d="M 187.5 131 Q 194.8 129.8 196 134.5 L 196 138 L 187.5 138 Q 184.8 139.3 187 140.5 Q 186.1 143.9 191.5 142 L 195.5 141 L 193.5 144 L 188.5 145 L 184 141.5 L 183 135.5 L 185.5 132 L 187.5 131 Z M 189 133 Q 184 135 188 137 Q 194 138 193 136 Q 193 133 189 133 Z "></path><path fill="rgb(13,64,35)" stroke="rgb(13,64,35)" stroke-width="1" opacity="1" d="M 88.5 136 L 92.5 137 Q 93.8 134.8 95 137.5 L 88 138 L 88.5 136 Z "></path><path fill="rgb(86,138,140)" stroke="rgb(86,138,140)" stroke-width="1" opacity="1" d="M 64.5 39 L 65 40.5 L 64 41.5 L 64 82.5 L 65 83.5 L 65 111.5 L 64 111.5 L 64 84.5 L 61.5 84 L 40.5 91 L 41 89.5 L 64.5 39 Z "></path><path fill="rgb(86,138,140)" stroke="rgb(86,138,140)" stroke-width="1" opacity="1" d="M 104.5 70 L 105 71.5 L 68 109.5 L 68 111 L 66 110.5 L 66 108.5 Q 64.5 103 67 101.5 L 66 100.5 L 66 85 L 68 84.5 L 66 83.5 L 67.5 82 L 98.5 73 L 104.5 70 Z M 70 85 L 70 86 L 72 86 L 70 85 Z "></path><path fill="rgb(86,138,140)" stroke="rgb(86,138,140)" stroke-width="1" opacity="1" d="M 187.5 97 L 193 114 L 178.5 114 L 177 112.5 L 179 112.5 L 187.5 97 Z "></path><path fill="rgb(86,138,140)" stroke="rgb(86,138,140)" stroke-width="1" opacity="1" d="M 114.5 98 L 162 113.5 L 64.5 114 L 64.5 113 L 68.5 113 L 114.5 98 Z "></path><path fill="rgb(86,138,140)" stroke="rgb(86,138,140)" stroke-width="1" opacity="1" d="M 177.5 108 Q 179.8 107.3 179 109.5 L 177.5 108 Z "></path><path fill="rgb(86,138,140)" stroke="rgb(86,138,140)" stroke-width="1" opacity="1" d="M 33.5 125 L 38 125.5 L 33.5 126 L 33.5 125 Z "></path><path fill="rgb(86,138,140)" stroke="rgb(86,138,140)" stroke-width="1" opacity="1" d="M 30.5 126 L 29.5 128 L 30.5 126 Z "></path><path fill="rgb(86,138,140)" stroke="rgb(86,138,140)" stroke-width="1" opacity="1" d="M 59.5 126 L 61 128.5 L 59 127.5 L 59.5 126 Z "></path><path fill="rgb(86,138,140)" stroke="rgb(86,138,140)" stroke-width="1" opacity="1" d="M 33.5 127 L 37 127.5 L 33.5 128 L 33.5 127 Z "></path><path fill="rgb(86,138,140)" stroke="rgb(86,138,140)" stroke-width="1" opacity="1" d="M 80.5 127 L 81 130.5 L 80 130.5 L 80.5 127 Z "></path><path fill="rgb(86,138,140)" stroke="rgb(86,138,140)" stroke-width="1" opacity="1" d="M 82.5 127 L 83 130.5 L 82 130.5 L 82.5 127 Z "></path><path fill="rgb(86,138,140)" stroke="rgb(86,138,140)" stroke-width="1" opacity="1" d="M 38.5 128 L 39.5 130 L 38.5 128 Z "></path><path fill="rgb(86,138,140)" stroke="rgb(86,138,140)" stroke-width="1" opacity="1" d="M 28.5 129 L 29 131.5 L 28 131.5 L 28.5 129 Z "></path><path fill="rgb(86,138,140)" stroke="rgb(86,138,140)" stroke-width="1" opacity="1" d="M 159.5 130 L 161 133.5 L 160 133.5 L 159.5 130 Z "></path><path fill="rgb(86,138,140)" stroke="rgb(86,138,140)" stroke-width="1" opacity="1" d="M 59.5 131 L 60 144 L 62 144.5 L 60.5 145 L 59 143.5 L 59.5 131 Z "></path><path fill="rgb(86,138,140)" stroke="rgb(86,138,140)" stroke-width="1" opacity="1" d="M 123.5 131 L 121.5 134 L 123.5 131 Z "></path><path fill="rgb(86,138,140)" stroke="rgb(86,138,140)" stroke-width="1" opacity="1" d="M 136.5 131 L 137 141.5 L 136 141.5 L 136.5 131 Z "></path><path fill="rgb(86,138,140)" stroke="rgb(86,138,140)" stroke-width="1" opacity="1" d="M 145.5 131 L 146 139.5 L 145 139.5 L 145.5 131 Z "></path><path fill="rgb(86,138,140)" stroke="rgb(86,138,140)" stroke-width="1" opacity="1" d="M 193.5 131 L 194.5 133 L 193.5 131 Z "></path><path fill="rgb(86,138,140)" stroke="rgb(86,138,140)" stroke-width="1" opacity="1" d="M 67.5 132 L 68.5 134 L 67.5 132 Z "></path><path fill="rgb(86,138,140)" stroke="rgb(86,138,140)" stroke-width="1" opacity="1" d="M 101 132 L 103 132.5 L 102 133.5 L 101.5 143 L 101 132 Z "></path><path fill="rgb(86,138,140)" stroke="rgb(86,138,140)" stroke-width="1" opacity="1" d="M 114.5 132 L 113.5 134 L 114.5 132 Z "></path><path fill="rgb(86,138,140)" stroke="rgb(86,138,140)" stroke-width="1" opacity="1" d="M 29.5 133 L 30.5 135 L 29.5 133 Z "></path><path fill="rgb(86,138,140)" stroke="rgb(86,138,140)" stroke-width="1" opacity="1" d="M 80.5 133 L 81 142.5 L 80 142.5 L 80.5 133 Z "></path><path fill="rgb(86,138,140)" stroke="rgb(86,138,140)" stroke-width="1" opacity="1" d="M 82.5 133 L 83 141.5 L 84 142.5 L 82 141.5 L 82.5 133 Z "></path><path fill="rgb(86,138,140)" stroke="rgb(86,138,140)" stroke-width="1" opacity="1" d="M 133.5 133 L 134 142.5 L 133 142.5 L 133.5 133 Z "></path><path fill="rgb(86,138,140)" stroke="rgb(86,138,140)" stroke-width="1" opacity="1" d="M 176.5 133 L 177.5 135 L 176.5 133 Z "></path><path fill="rgb(86,138,140)" stroke="rgb(86,138,140)" stroke-width="1" opacity="1" d="M 157.5 134 L 156.5 136 L 157.5 134 Z "></path><path fill="rgb(86,138,140)" stroke="rgb(86,138,140)" stroke-width="1" opacity="1" d="M 76.5 135 L 77 143.5 L 74.5 145 L 74.5 144 L 76 143.5 L 76.5 135 Z "></path><path fill="rgb(86,138,140)" stroke="rgb(86,138,140)" stroke-width="1" opacity="1" d="M 114.5 135 L 115 144 L 118 144.5 L 115.5 145 L 114 143.5 L 114.5 135 Z "></path><path fill="rgb(86,138,140)" stroke="rgb(86,138,140)" stroke-width="1" opacity="1" d="M 186.5 135 L 193 136.5 L 187.5 137 L 186.5 135 Z "></path><path fill="rgb(86,138,140)" stroke="rgb(86,138,140)" stroke-width="1" opacity="1" d="M 87.5 136 L 88 138 L 94 138.5 L 88.5 139 L 87.5 136 Z "></path><path fill="rgb(86,138,140)" stroke="rgb(86,138,140)" stroke-width="1" opacity="1" d="M 89.5 136 L 93 136.5 L 89.5 137 L 89.5 136 Z "></path><path fill="rgb(86,138,140)" stroke="rgb(86,138,140)" stroke-width="1" opacity="1" d="M 196.5 136 L 197 137.5 L 195.5 139 L 187.5 139 L 186.5 140 L 187.5 138 L 195.5 138 L 196.5 136 Z "></path><path fill="rgb(86,138,140)" stroke="rgb(86,138,140)" stroke-width="1" opacity="1" d="M 39.5 137 L 41 140.5 L 40 140.5 L 39.5 137 Z "></path><path fill="rgb(86,138,140)" stroke="rgb(86,138,140)" stroke-width="1" opacity="1" d="M 155.5 137 L 156 143.5 L 152.5 145 L 152.5 144 L 155 144 L 155.5 137 Z "></path><path fill="rgb(86,138,140)" stroke="rgb(86,138,140)" stroke-width="1" opacity="1" d="M 127.5 138 L 130 138.5 L 127.5 139 L 127.5 138 Z "></path><path fill="rgb(86,138,140)" stroke="rgb(86,138,140)" stroke-width="1" opacity="1" d="M 178.5 139 L 182 140.5 L 180.5 140 Q 177.5 140.5 178.5 139 Z "></path><path fill="rgb(86,138,140)" stroke="rgb(86,138,140)" stroke-width="1" opacity="1" d="M 30.5 140 L 32.5 143 L 30.5 140 Z "></path><path fill="rgb(86,138,140)" stroke="rgb(86,138,140)" stroke-width="1" opacity="1" d="M 124.5 140 L 125 142 L 128 142.5 L 125.5 143 L 124.5 140 Z "></path><path fill="rgb(86,138,140)" stroke="rgb(86,138,140)" stroke-width="1" opacity="1" d="M 193.5 140 L 196 140.5 L 193.5 141 L 193.5 140 Z "></path><path fill="rgb(86,138,140)" stroke="rgb(86,138,140)" stroke-width="1" opacity="1" d="M 169.5 142 L 170.5 144 L 169.5 142 Z "></path><path fill="rgb(86,138,140)" stroke="rgb(86,138,140)" stroke-width="1" opacity="1" d="M 180.5 142 L 179.5 144 L 180.5 142 Z "></path><path fill="rgb(86,138,140)" stroke="rgb(86,138,140)" stroke-width="1" opacity="1" d="M 184.5 142 L 185.5 144 L 184.5 142 Z "></path><path fill="rgb(86,138,140)" stroke="rgb(86,138,140)" stroke-width="1" opacity="1" d="M 45.5 143 L 46.5 145 L 45.5 143 Z "></path><path fill="rgb(86,138,140)" stroke="rgb(86,138,140)" stroke-width="1" opacity="1" d="M 85.5 143 L 84.5 145 L 82 144.5 L 85.5 143 Z "></path><path fill="rgb(86,138,140)" stroke="rgb(86,138,140)" stroke-width="1" opacity="1" d="M 137.5 143 L 138.5 145 L 137.5 143 Z "></path><path fill="rgb(86,138,140)" stroke="rgb(86,138,140)" stroke-width="1" opacity="1" d="M 144.5 143 L 149 144.5 L 146.5 145 L 144.5 144 L 143 144.5 L 144.5 143 Z "></path><path fill="rgb(86,138,140)" stroke="rgb(86,138,140)" stroke-width="1" opacity="1" d="M 98.5 144 L 102 144.5 L 98.5 145 L 98.5 144 Z "></path><path fill="rgb(86,138,140)" stroke="rgb(86,138,140)" stroke-width="1" opacity="1" d="M 107.5 144 L 110 144.5 L 107.5 145 L 107.5 144 Z "></path><path fill="rgb(86,138,140)" stroke="rgb(86,138,140)" stroke-width="1" opacity="1" d="M 130.5 144 L 134 144.5 L 130.5 145 L 130.5 144 Z "></path><path fill="rgb(86,138,140)" stroke="rgb(86,138,140)" stroke-width="1" opacity="1" d="M 162.5 144 L 166 144.5 L 162.5 145 L 162.5 144 Z "></path></svg>