<svg width="103" height="154" viewBox="0 0 103 154" fill="none" xmlns="http://www.w3.org/2000/svg">
<path d="M51.3356 0L-0.00012207 51.3357V102.664L12.8356 115.5L38.4999 89.8357V141.164L51.3356 154L102.668 102.664V51.3321L89.8356 38.5L64.1641 64.1679V12.8285L51.3356 0Z" fill="#0AB4AA"/>
<path d="M83.1683 75.4C83.3422 73.6506 84.4686 72.0172 86.7539 72.0172C88.8908 72.0172 90.1512 73.5492 90.1512 75.2551V75.4H83.1683ZM86.9133 84.1141C89.3254 84.1141 91.1617 83.2919 92.7227 81.6005L90.4989 79.6339C89.5174 80.7313 88.3584 81.2094 86.9423 81.2094C84.6316 81.2094 83.3567 79.8946 83.2154 77.7831H93.1139C93.1718 77.2905 93.2008 76.7292 93.2008 76.4539C93.2008 72.622 91.1038 69.3443 86.6815 69.3443C82.0709 69.3443 80.0065 73.0168 80.0065 76.8161C80.0029 80.6588 82.1289 84.1141 86.9133 84.1141ZM70.9555 83.8533H73.5995L79.4089 69.605H75.9392L72.2703 79.6918L68.6412 69.605H65.128L70.9555 83.8533ZM53.6432 76.7147C53.6432 73.8824 55.1173 72.1476 57.5439 72.1476C59.9271 72.1476 61.3903 73.8679 61.3903 76.7147C61.3903 79.5469 59.9307 81.2963 57.5439 81.2963C55.1318 81.2963 53.6432 79.5469 53.6432 76.7147ZM57.5439 84.1141C61.604 84.1141 64.6101 80.9921 64.6101 76.7147C64.6101 72.4228 61.633 69.3443 57.5439 69.3443C53.3969 69.3443 50.4343 72.4228 50.4343 76.7147C50.4343 81.021 53.4404 84.1141 57.5439 84.1141ZM35.3602 83.8533H38.5692V76.932C38.5692 73.5927 39.7101 72.1186 41.865 72.1186C43.7737 72.1186 44.6973 73.2739 44.6973 75.8165V83.8533H47.9207V74.6321C47.9207 71.2349 45.9975 69.3443 42.8176 69.3443C41.1407 69.3443 39.5217 69.9672 38.5692 71.4558V69.605H35.3602V83.8533ZM28.6236 67.2762H32.1513V63.7051H28.6236V67.2762ZM28.783 83.8533H31.9775V69.605H28.783V83.8533ZM9.47144 83.8533H12.8108V69.3732L21.6553 83.8533H25.1684V63.7087H21.8146V78.1453L12.9411 63.7087H9.47144V83.8533Z" fill="white"/>
</svg>
